<?xml version="1.0" encoding="UTF-8" standalone="no"?>
<!-- Created with Inkscape (http://www.inkscape.org/) -->

<svg
   xmlns:svg="http://www.w3.org/2000/svg"
   xmlns="http://www.w3.org/2000/svg"
   version="1.1"
   width="180"
   height="80"
   id="svg2">
  <defs
     id="defs4" />
  <g
     transform="translate(295.54595,-808.36503)"
     id="layer1">
    <path
       d="m -203.5855,888.32266 c -5.91672,-0.10355 -27.94291,-0.77542 -40.53496,-1.23644 -13.36527,-0.48937 -27.9726,-2.49754 -36.37287,-5.00042 -7.1824,-2.14004 -12.60412,-5.89519 -14.27693,-9.88837 -2.38416,-5.69125 0.92105,-15.19889 7.26475,-20.89753 3.59595,-3.23031 7.41458,-4.70753 17.32686,-6.7029 9.41299,-1.89485 10.87949,-3.02726 14.74552,-11.38637 5.97457,-12.91819 6.54682,-13.85833 9.25499,-15.2046 1.99708,-0.99278 4.56377,-1.00136 10.01991,-0.0334 4.66134,0.82696 8.69779,0.95704 9.88609,0.31858 0.4348,-0.23362 3.07061,-1.88462 5.85739,-3.66891 7.74764,-4.96059 9.0911,-5.57098 13.29433,-6.04009 10.03326,-1.11981 15.94339,2.00962 21.30166,11.27927 7.88919,13.64802 7.6979,13.34914 8.5438,13.34914 0.45185,0 2.90075,-0.85698 5.44195,-1.90439 4.4359,-1.82834 4.8227,-1.91945 9.68726,-2.28182 8.09643,-0.60307 16.89928,0.36775 22.61994,2.49472 4.43327,1.6483 10.7906,5.78312 11.98552,7.79545 0.98324,1.65571 0.85869,4.33718 -0.40408,8.70226 -1.36352,4.71303 -1.42065,7.01361 -0.20789,8.35746 0.48271,0.53502 2.74467,1.89083 5.02665,3.01299 4.59329,2.25893 6.29645,3.84442 7.11068,6.61932 3.68948,12.57248 -14.39996,19.89083 -53.91209,21.81087 -8.17516,0.39726 -25.21263,0.65297 -33.65848,0.50517 l 0,0 z"
       id="path2822"
       style="fill:#ffffff;fill-opacity:1;stroke:none" />
  </g>
</svg>
