<?xml version="1.0" encoding="UTF-8" standalone="no"?>
<!-- Created with Inkscape (http://www.inkscape.org/) -->

<svg
   xmlns:dc="http://purl.org/dc/elements/1.1/"
   xmlns:cc="http://creativecommons.org/ns#"
   xmlns:rdf="http://www.w3.org/1999/02/22-rdf-syntax-ns#"
   xmlns:svg="http://www.w3.org/2000/svg"
   xmlns="http://www.w3.org/2000/svg"
   xmlns:sodipodi="http://sodipodi.sourceforge.net/DTD/sodipodi-0.dtd"
   xmlns:inkscape="http://www.inkscape.org/namespaces/inkscape"
   width="69.126228"
   height="102.97749"
   id="svg2"
   version="1.1"
   inkscape:version="0.47pre4 r22446"
   sodipodi:docname="snowman.svg"
   inkscape:export-filename="D:\Cliparts\snowman.png"
   inkscape:export-xdpi="93.764755"
   inkscape:export-ydpi="93.764755">
  <title
     id="title4855">Snowman</title>
  <sodipodi:namedview
     id="base"
     pagecolor="#ffffff"
     bordercolor="#666666"
     borderopacity="1.0"
     inkscape:pageopacity="0.0"
     inkscape:pageshadow="2"
     inkscape:zoom="2.8284271"
     inkscape:cx="185.14784"
     inkscape:cy="83.742955"
     inkscape:document-units="px"
     inkscape:current-layer="layer1"
     showgrid="false"
     inkscape:showpageshadow="false"
     inkscape:window-width="1656"
     inkscape:window-height="795"
     inkscape:window-x="0"
     inkscape:window-y="0"
     inkscape:window-maximized="0"
     inkscape:snap-global="false"
     gridtolerance="10"
     objecttolerance="10000"
     showguides="false">
    <inkscape:grid
       type="xygrid"
       id="grid2816"
       empspacing="5"
       visible="true"
       enabled="true"
       snapvisiblegridlinesonly="true" />
  </sodipodi:namedview>
  <defs
     id="defs4">
    <inkscape:perspective
       sodipodi:type="inkscape:persp3d"
       inkscape:vp_x="0 : 85.906479 : 1"
       inkscape:vp_y="0 : 1000 : 0"
       inkscape:vp_z="122.519 : 85.906479 : 1"
       inkscape:persp3d-origin="61.259499 : 57.270986 : 1"
       id="perspective63" />
    <inkscape:perspective
       id="perspective2929"
       inkscape:persp3d-origin="0.5 : 0.33333333 : 1"
       inkscape:vp_z="1 : 0.5 : 1"
       inkscape:vp_y="0 : 1000 : 0"
       inkscape:vp_x="0 : 0.5 : 1"
       sodipodi:type="inkscape:persp3d" />
    <inkscape:perspective
       id="perspective2942"
       inkscape:persp3d-origin="0.5 : 0.33333333 : 1"
       inkscape:vp_z="1 : 0.5 : 1"
       inkscape:vp_y="0 : 1000 : 0"
       inkscape:vp_x="0 : 0.5 : 1"
       sodipodi:type="inkscape:persp3d" />
  </defs>
  <metadata
     id="metadata7">
    <rdf:RDF>
      <cc:Work
         rdf:about="">
        <dc:format>image/svg+xml</dc:format>
        <dc:type
           rdf:resource="http://purl.org/dc/dcmitype/StillImage" />
        <dc:title>Snowman</dc:title>
        <cc:license
           rdf:resource="http://creativecommons.org/licenses/publicdomain/" />
        <dc:date>2009-12-08</dc:date>
        <dc:creator>
          <cc:Agent>
            <dc:title>Jean-Victor Balin</dc:title>
          </cc:Agent>
        </dc:creator>
        <dc:publisher>
          <cc:Agent>
            <dc:title>openclipart.org</dc:title>
          </cc:Agent>
        </dc:publisher>
        <dc:language>fr-FR</dc:language>
        <dc:subject>
          <rdf:Bag>
            <rdf:li>xmas</rdf:li>
            <rdf:li>christmas</rdf:li>
            <rdf:li>snow</rdf:li>
            <rdf:li>winter</rdf:li>
            <rdf:li>cold</rdf:li>
            <rdf:li>snowman</rdf:li>
          </rdf:Bag>
        </dc:subject>
        <dc:description>jean.victor.balin@gmail.com</dc:description>
      </cc:Work>
      <cc:License
         rdf:about="http://creativecommons.org/licenses/publicdomain/">
        <cc:permits
           rdf:resource="http://creativecommons.org/ns#Reproduction" />
        <cc:permits
           rdf:resource="http://creativecommons.org/ns#Distribution" />
        <cc:permits
           rdf:resource="http://creativecommons.org/ns#DerivativeWorks" />
      </cc:License>
    </rdf:RDF>
  </metadata>
  <g
     inkscape:label="Calque 1"
     inkscape:groupmode="layer"
     id="layer1"
     transform="translate(-38.692195,-85.909255)">
    <path
       sodipodi:nodetypes="cccccccccccccccccccccccc"
       id="path2954"
       d="m 62.784643,144.21368 -5.993911,-1.9202 -3.679464,1.55756 -3.317392,-0.39866 -0.208036,-3.18528 -3.981082,-4.94973 -1.179074,1.2689 3.674237,4.36478 0.179063,2.40758 -4.134622,-0.72369 -3.990495,-4.36803 -1.461672,1.22129 4.516495,4.69316 4.55961,0.57155 -1.432985,2.14778 -4.349396,1.3637 1.085156,1.96173 4.253275,-1.93518 2.195548,-3.10101 3.65387,0.30827 3.81018,-1.07225 7.538189,2.90976 -0.01873,-2.37203 -1.718764,-0.75 z"
       style="fill:#1a1a1a;stroke:none" />
    <path
       style="fill:#1a1a1a;stroke:none"
       d="m 92.89693,143.98814 4.11717,-4.76057 0.0103,-3.99553 1.66781,-2.89524 3.01166,1.0579 6.11455,-1.72082 -0.7048,-1.58227 -5.45612,1.66798 -2.28491,-0.77955 2.28732,-3.51952 5.58314,-1.95761 -0.55017,-1.82356 -6.08852,2.31396 -2.31404,3.97013 -1.41368,-2.16055 0.4514,-4.53575 -2.23015,0.22881 0.11198,4.67148 1.99146,3.23587 -1.71663,3.24021 -0.50802,3.92544 -5.63312,5.79301 2.18931,0.91311 1.36402,-1.2869 z"
       id="path2956"
       sodipodi:nodetypes="cccccccccccccccccccccccc" />
    <path
       sodipodi:nodetypes="ccccccccccccccccccccccc"
       id="path2958"
       d="m 91.48549,144.91667 5.05485,-5.74717 0.15728,-4.06178 1.86526,-3.13322 2.98957,1.133 5.91637,-1.47406 -0.5014,-1.23974 -5.36453,1.71484 -2.66168,-1.02139 2.63115,-3.93669 5.27925,-1.97488 -0.34313,-0.90226 -5.62035,2.10727 -2.60734,4.07911 -1.76133,-2.53287 0.42377,-4.30344 -1.41474,0.14887 10e-4,4.14042 2.10217,3.45911 -1.88892,3.32896 -0.39827,3.99501 -5.54264,5.58229 1.68328,0.63866 z"
       style="fill:#8f5902;stroke:none" />
    <path
       style="fill:#ffffff;fill-opacity:1;fill-rule:nonzero;stroke:none"
       d="m 74.199803,111.5429 c -4.944595,0.0404 -7.19221,1.31303 -8.320123,3.18297 -1.127912,1.86993 -1.142677,4.54886 -1.142677,7.43905 0,2.75817 1.014771,5.09476 2.892403,6.83883 a 0.56834758,0.57898099 0 0 1 -0.07142,0.92761 c -3.937554,2.63932 -4.909943,7.24074 -4.909943,12.64092 0,2.70878 0.724656,5.24351 1.999686,7.43905 a 0.56834758,0.57898099 0 0 1 -0.196398,0.7821 c -6.087084,3.64988 -10.084987,9.93824 -10.105557,17.07889 5.69e-4,0.006 -5.7e-4,0.0119 0,0.0182 -2.3e-5,0.0123 0,0.0241 0,0.0364 0.591377,6.52802 1.945008,11.51598 5.42772,14.91448 3.490454,3.40605 9.221132,5.32079 18.818475,5.45651 0.0066,9e-5 0.01126,-9e-5 0.01783,0 10.451022,-0.40582 16.289974,-1.00847 19.943298,-3.45579 3.637493,-2.43672 5.352463,-6.81921 7.480963,-15.11455 -0.60409,-7.21819 -5.93729,-15.03189 -13.194323,-19.18871 a 0.56834758,0.57898099 0 0 1 -0.249961,-0.72754 c 0.737444,-1.93037 1.002597,-4.28354 0.53563,-7.14803 a 0.56834758,0.57898099 0 0 1 -0.01783,-0.0909 c 0,-5.2493 -2.725063,-9.81246 -6.873921,-12.49542 a 0.56834758,0.57898099 0 0 1 -0.107154,-0.89123 c 1.395449,-1.52234 2.138401,-3.70679 1.856851,-6.92977 -0.979692,-3.63971 -2.304661,-6.19882 -4.142207,-7.89376 -1.848087,-1.70466 -4.240786,-2.5815 -7.516677,-2.76463 -0.75435,-0.0422 -1.465056,-0.06 -2.124667,-0.0546 z"
       id="path3928" />
    <path
       style="fill:#dcdcdc;fill-opacity:1;fill-rule:nonzero;stroke:none"
       d="m 71.695232,111.14751 c -7.233522,1.01323 -7.1953,5.84931 -7.1953,11.02216 0,6.16195 4.773992,10.10543 12.890833,10.56745 0.642522,0.0366 1.326923,-0.20275 1.942952,-0.25243 -6.184992,-1.09626 -11.216214,-4.368 -11.216214,-10.30685 0,-3.91999 1.308228,-8.68275 3.577729,-11.03033 z"
       id="path3807-4-8-4"
       sodipodi:nodetypes="csscsc" />
    <path
       style="fill:#312c29;fill-opacity:1;fill-rule:nonzero;stroke:none"
       d="m 91.728332,181.36389 c 0,0.86474 -1.378584,1.51441 -2.066133,1.56574 -1.138038,0.085 -2.066127,-0.701 -2.066127,-1.56574 0,-0.86475 0.673072,-2.28447 2.066127,-1.56576 1.017989,0.5252 2.066133,0.70101 2.066133,1.56576 z"
       id="path4010"
       sodipodi:nodetypes="csssc" />
    <path
       style="fill:#312c29;fill-opacity:1;fill-rule:nonzero;stroke:none"
       d="m 92.383441,172.09016 c 0,0.86474 -1.07454,1.49936 -2.066133,1.56574 -1.588494,0.10634 -2.066127,-0.701 -2.066127,-1.56574 0,-0.86475 0.471497,-1.61709 2.066127,-2.1818 1.077831,-0.38168 1.612592,1.26572 2.066133,2.1818 z"
       id="path4010-2"
       sodipodi:nodetypes="csssc" />
    <path
       style="fill:#312c29;fill-opacity:1;fill-rule:nonzero;stroke:none"
       d="m 88.404002,160.67263 c -0.678613,0.56372 -1.695505,0.54965 -2.343438,-0.0348 -0.491322,-0.44314 -0.701758,-0.91293 0.02268,-2.01882 0.489689,-0.74747 1.422514,-0.34532 2.323161,-0.0475 0.678253,0.36604 0.847907,0.9717 -0.0023,2.10106 l -1.2e-4,0 z"
       id="path4010-2-7"
       sodipodi:nodetypes="cssccc" />
    <path
       style="fill:#312c29;fill-opacity:1;fill-rule:nonzero;stroke:none"
       d="m 86.232806,149.49804 c -0.678613,0.56371 -1.695505,0.54965 -2.343438,-0.0348 -0.491323,-0.44315 -0.972881,-1.79736 0.224256,-2.32683 0.993622,-0.43946 0.968974,0.47604 1.718439,0.51719 0.752414,-0.0586 1.192025,0.97028 0.400749,1.84439 l -6e-6,0 z"
       id="path4010-2-7-6"
       sodipodi:nodetypes="cssccc" />
    <path
       style="fill:#312c29;fill-opacity:1;fill-rule:nonzero;stroke:none"
       d="m 81.387275,139.42006 c -0.642505,-0.95651 -0.27238,-2.40429 1.030553,-2.48084 0.489683,-0.0288 1.019365,0.52738 1.617649,1.03056 0.500447,0.45474 0.53691,1.32963 -0.607117,1.89572 -0.78114,0.32569 -1.623265,0.15081 -2.041085,-0.44544 z"
       id="path4010-2-7-6-1"
       sodipodi:nodetypes="csccc" />
    <path
       style="fill:#312c29;fill-opacity:1;fill-rule:nonzero;stroke:none"
       d="m 73.908957,129.6883 c -0.324771,-0.46017 -0.137676,-1.1567 0.520919,-1.19353 0.247521,-0.0138 0.515267,0.25372 0.817688,0.4958 0.252955,0.21878 0.271386,0.63968 -0.306883,0.91203 -0.394852,0.15669 -0.703449,0.0202 -1.031724,-0.2143 z"
       id="path4010-2-7-6-1-4-22"
       sodipodi:nodetypes="csccc" />
    <path
       style="fill:#312c29;fill-opacity:1;fill-rule:nonzero;stroke:none"
       d="m 76.118748,130.45834 c -0.309106,-0.46017 -0.131043,-1.1567 0.495796,-1.19352 0.235586,-0.0138 0.490415,0.25372 0.778244,0.49579 0.240768,0.21878 0.258308,0.63969 -0.29208,0.91203 -0.375804,0.15669 -0.669518,0.0202 -0.98196,-0.2143 z"
       id="path4010-2-7-6-1-4-6"
       sodipodi:nodetypes="csccc" />
    <path
       style="fill:#312c29;fill-opacity:1;fill-rule:nonzero;stroke:none"
       d="m 78.852382,130.82399 c -0.455523,-0.30915 -0.545881,-1.023 0.02205,-1.2958 0.213441,-0.10253 0.54796,0.0486 0.903738,0.16359 0.303581,0.11126 0.474263,0.49499 0.06367,0.95714 -0.291092,0.28841 -0.613607,0.27359 -0.989428,0.17507 z"
       id="path4010-2-7-6-1-4-5"
       sodipodi:nodetypes="csccc" />
    <path
       style="fill:#312c29;fill-opacity:1;fill-rule:nonzero;stroke:none"
       d="m 81.492241,130.6508 c -0.390195,-0.23268 -0.498321,-0.81693 -0.04285,-1.06964 0.171185,-0.095 0.454157,0.0133 0.752962,0.0907 0.255583,0.0769 0.414403,0.38502 0.09756,0.78618 -0.226468,0.25206 -0.493129,0.25559 -0.807679,0.19271 z"
       id="path4010-2-7-6-1-4-61"
       sodipodi:nodetypes="csccc" />
    <path
       style="fill:#312c29;fill-opacity:1;fill-rule:nonzero;stroke:none"
       d="m 83.898395,130.27543 c -0.451352,-0.0271 -0.807856,-0.4978 -0.514445,-0.93349 0.110274,-0.16374 0.410684,-0.19796 0.71146,-0.26704 0.262022,-0.0495 0.540744,0.15166 0.436994,0.65558 -0.0896,0.32929 -0.32568,0.45565 -0.634009,0.54495 z"
       id="path4010-2-7-6-1-4-27"
       sodipodi:nodetypes="csccc" />
    <path
       style="fill:#312c29;fill-opacity:1;fill-rule:nonzero;stroke:none"
       d="m 85.591558,129.39142 c -0.39147,0.0537 -0.774461,-0.28918 -0.594421,-0.71277 0.06766,-0.15919 0.319641,-0.23974 0.566197,-0.35022 0.216543,-0.0871 0.48858,0.0379 0.482376,0.48766 -0.02274,0.29762 -0.204431,0.44621 -0.454152,0.57533 z"
       id="path4010-2-7-6-1-4-54"
       sodipodi:nodetypes="csccc" />
    <path
       style="fill:#312c29;fill-opacity:1;fill-rule:nonzero;stroke:none"
       d="m 73.506594,122.18656 c -0.739297,-1.1006 -0.527215,-2.62129 0.972005,-2.70938 0.563455,-0.0331 1.279828,0.0623 1.96824,0.64132 0.575841,0.52325 0.724703,1.92924 -0.591673,2.5806 -0.898819,0.37477 -1.779469,0.19343 -2.348572,-0.51254 z"
       id="path4010-2-7-6-1-3"
       sodipodi:nodetypes="csccc" />
    <path
       style="fill:#312c29;fill-opacity:1;fill-rule:nonzero;stroke:none"
       d="m 86.160457,121.45331 c 0.767223,-0.77501 0.27238,-2.40429 -1.030552,-2.48084 -0.489683,-0.0288 -0.948103,0.20068 -1.546386,0.70386 -0.500447,0.45474 -0.608173,1.65633 0.535853,2.22242 0.78114,0.32569 1.39165,0.0419 2.041085,-0.44544 z"
       id="path4010-2-7-6-1-2"
       sodipodi:nodetypes="csccc" />
    <path
       style="fill:#8f5902;stroke:none"
       d="m 64.192353,145.14786 -7.269233,-2.3958 -3.798025,1.44836 -3.613743,-0.48695 -0.130305,-3.19441 -3.676363,-4.86422 -0.943762,0.94746 3.681427,4.26215 0.104365,2.84902 -4.653222,-0.87636 -3.887196,-4.08172 -0.695381,0.66951 4.142748,4.34356 4.774885,0.7986 -1.639137,2.61361 -4.12484,1.298 0.691795,1.24301 3.808152,-1.62514 2.357488,-3.29041 3.803089,0.43195 3.831122,-1.20049 7.308878,2.90917 -0.07274,-1.7989 z"
       id="path4857-6"
       sodipodi:nodetypes="ccccccccccccccccccccccc" />
    <path
       style="fill:#dcdcdc;fill-opacity:1;fill-rule:nonzero;stroke:none"
       d="m 67.325882,129.66536 c -3.946984,2.74665 -4.909944,7.53585 -4.909944,12.91376 0,2.77589 0.732032,5.37392 1.999687,7.62093 -6.231905,3.75005 -10.355518,10.22184 -10.355518,17.58817 1.186899,13.21831 5.474766,20.6843 24.835388,20.95301 0.41982,-0.0163 0.790876,-0.0377 1.196241,-0.0545 -14.456233,-1.76041 -17.975002,-9.57334 -19.032728,-22.37171 0,-5.26853 1.806388,-10.10434 4.802818,-13.96868 2.768855,3.41179 6.952593,5.58383 11.64103,5.58383 2.121433,0 4.257806,-0.26898 6.231165,-0.85485 -10.027038,-0.90378 -17.872195,-8.66657 -17.872195,-18.11563 0,-3.37546 0.361928,-6.56515 1.464056,-9.29427 z"
       id="path3807-8" />
    <path
       style="fill:#a0a0a0;fill-opacity:1;fill-rule:nonzero;stroke:none"
       d="m 92.325827,150.29484 c -2.688995,5.14325 -8.812931,7.22079 -14.850669,7.22079 -4.423694,0 -8.427226,-1.83538 -11.326203,-4.81992 2.777002,3.41985 6.948755,5.60202 11.61706,5.60202 6.145641,0 12.384679,-2.28084 14.559812,-8.00289 z"
       id="path3807-4-2-1" />
    <path
       style="fill:#a0a0a0;fill-opacity:1;fill-rule:nonzero;stroke:none"
       d="m 85.578812,129.89924 c -2.619984,2.06247 -6.511778,2.5433 -10.743943,2.08924 -1.886468,-0.2024 -3.58381,-0.61196 -5.067508,-1.16881 1.578292,1.00885 3.634248,1.71285 6.128462,1.98045 4.068024,0.43645 7.750132,-0.21711 9.682989,-2.90088 z"
       id="path3807-4-8-4-1" />
    <path
       style="fill:#312c29;fill-opacity:1;fill-rule:nonzero;stroke:none"
       d="m 74.199803,110.96771 c -10.086263,0.0824 -10.034139,5.42722 -10.034139,11.20404 0,2.90671 1.098131,5.42629 3.088801,7.27535 -4.156026,2.78577 -5.177759,7.65844 -5.177759,13.13202 0,2.81561 0.765077,5.45039 2.088958,7.73006 -6.25539,3.75079 -10.391226,10.24079 -10.391226,17.62454 1.1869,13.21832 5.474762,20.68431 24.835387,20.95302 20.951729,-0.81259 23.714145,-2.31307 28.013465,-19.11599 -0.58649,-7.49486 -6.0503,-15.46842 -13.497886,-19.7344 0.778495,-2.03782 1.034192,-4.50845 0.553485,-7.45723 0,-5.45412 -2.841229,-10.20549 -7.141736,-12.98651 1.520058,-1.65828 2.31927,-4.05905 2.01754,-7.42086 -1.99547,-7.46875 -5.471438,-10.77363 -12.194515,-11.14948 -0.765537,-0.0428 -1.48796,-0.0601 -2.160375,-0.0546 z m 0,0.58202 c 0.659611,-0.005 1.370317,0.0124 2.124667,0.0546 3.275891,0.18314 5.66859,1.05997 7.516677,2.76463 1.837546,1.69494 3.162515,4.25405 4.142207,7.89376 0.28155,3.22298 -0.461402,5.40744 -1.856851,6.92978 a 0.56834758,0.57898099 0 0 0 0.107126,0.89123 c 4.148857,2.68295 6.873921,7.24611 6.873921,12.49542 a 0.56834758,0.57898099 0 0 0 0.01783,0.0909 c 0.466966,2.8645 0.201814,5.21766 -0.535631,7.14803 a 0.56834758,0.57898099 0 0 0 0.249961,0.72754 c 7.25703,4.15683 12.59023,11.97052 13.19435,19.18874 -2.1285,8.29534 -3.84347,12.67783 -7.480961,15.11455 -3.653324,2.44732 -9.492276,3.04997 -19.943298,3.45579 -0.0066,-9e-5 -0.01131,1e-4 -0.01783,0 -9.597343,-0.13572 -15.328021,-2.05046 -18.818475,-5.45651 -3.482712,-3.3985 -4.836343,-8.38645 -5.42772,-14.91448 0,-0.0123 -2.3e-5,-0.0241 0,-0.0364 -5.7e-4,-0.006 5.69e-4,-0.0119 0,-0.0182 0.02057,-7.14066 4.018473,-13.42902 10.105557,-17.0789 a 0.56834758,0.57898099 0 0 0 0.196398,-0.7821 c -1.27503,-2.19554 -1.999686,-4.73027 -1.999686,-7.43904 0,-5.40019 0.972389,-10.00161 4.909943,-12.64093 a 0.56834758,0.57898099 0 0 0 0.07142,-0.92761 c -1.877632,-1.74407 -2.892403,-4.08066 -2.892403,-6.83883 0,-2.89019 0.01476,-5.56912 1.142677,-7.43905 1.127913,-1.86993 3.375528,-3.14259 8.320123,-3.18297 z"
       id="path3807" />
    <path
       sodipodi:nodetypes="ccccccc"
       id="path2943"
       d="m 81.232134,122.33791 c 0.895657,-0.62415 4.535151,1.94642 8.599649,2.72736 2.958805,0.52921 8.729273,0.74217 8.715566,2.27053 -0.1125,1.18006 -0.56414,1.45354 -1.25222,1.50936 -3.633284,-0.62739 -7.071933,-1.01994 -10.931611,-1.25998 -1.59977,0.0467 -4.55954,0.66596 -5.625813,0.11346 -1.533599,-1.76399 -0.925168,-3.943 0.494429,-5.36071 z"
       style="fill:#1a1a1a;fill-opacity:1;stroke:none" />
    <path
       style="fill:#8d7c6a;fill-opacity:1;fill-rule:nonzero;stroke:none"
       d="m 89.958764,180.55303 c 0,0.27636 -0.509708,0.48398 -0.76392,0.50038 -0.420774,0.0272 -0.76392,-0.22402 -0.76392,-0.50038 0,-0.27636 0.248858,-0.73007 0.76392,-0.50039 0.376387,0.16785 0.76392,0.22403 0.76392,0.50039 z"
       id="path4010-7"
       sodipodi:nodetypes="csssc" />
    <path
       style="fill:#8d7c6a;fill-opacity:1;fill-rule:nonzero;stroke:none"
       d="m 91.232027,171.01103 c 0,0.3401 -0.422602,0.5897 -0.812598,0.6158 -0.624742,0.0418 -0.812593,-0.2757 -0.812593,-0.6158 0,-0.3401 0.18544,-0.63599 0.812593,-0.85809 0.423905,-0.15011 0.634232,0.4978 0.812598,0.85809 z"
       id="path4010-2-2"
       sodipodi:nodetypes="csssc" />
    <path
       style="fill:#8d7c6a;fill-opacity:1;fill-rule:nonzero;stroke:none"
       d="m 87.163043,159.49709 c -0.25716,0.21363 -0.642516,0.2083 -0.888055,-0.0131 -0.186194,-0.16793 -0.265941,-0.34596 0.0086,-0.76504 0.185571,-0.28326 0.53907,-0.13086 0.880371,-0.018 0.257034,0.13872 0.321326,0.36823 -5.72e-4,0.7962 l -4.5e-5,0 z"
       id="path4010-2-7-7"
       sodipodi:nodetypes="cssccc" />
    <path
       style="fill:#8d7c6a;fill-opacity:1;fill-rule:nonzero;stroke:none"
       d="m 84.95852,148.30718 c -0.2546,0.2115 -0.636111,0.20622 -0.879199,-0.013 -0.184337,-0.16626 -0.365005,-0.67432 0.08414,-0.87297 0.372781,-0.16487 0.363531,0.1786 0.644721,0.19404 0.282287,-0.0219 0.447216,0.36402 0.150342,0.69197 l 0,0 z"
       id="path4010-2-7-6-7"
       sodipodi:nodetypes="cssccc" />
    <path
       style="fill:#8d7c6a;fill-opacity:1;fill-rule:nonzero;stroke:none"
       d="m 81.917009,138.28939 c -0.267501,-0.35805 -0.151827,-0.92678 0.351882,-0.98245 0.189313,-0.021 0.405371,0.18414 0.647013,0.3673 0.202779,0.16633 0.23374,0.50482 -0.198952,0.74713 -0.29661,0.14187 -0.626479,0.0909 -0.799943,-0.13198 z"
       id="path4010-2-7-6-1-9"
       sodipodi:nodetypes="csccc" />
    <path
       style="fill:#8d7c6a;fill-opacity:1;fill-rule:nonzero;stroke:none"
       d="m 84.807293,120.66251 c 0.390498,-0.25459 0.327251,-0.98356 -0.21255,-1.13546 -0.202877,-0.0571 -0.415506,-0.003 -0.711065,0.15311 -0.250224,0.14475 -0.401863,0.63892 0.02788,0.98157 0.298833,0.20844 0.580086,0.14552 0.895699,8.1e-4 z"
       id="path4010-2-7-6-1-2-3"
       sodipodi:nodetypes="csccc" />
    <path
       style="fill:#8d7c6a;fill-opacity:1;fill-rule:nonzero;stroke:none"
       d="m 73.885864,120.79434 c -0.276104,-0.41104 -0.196898,-0.97897 0.363006,-1.01186 0.210435,-0.0124 0.477976,0.0233 0.735073,0.23951 0.215063,0.19541 0.270655,0.7205 -0.220965,0.96377 -0.335679,0.13996 -0.66457,0.0722 -0.877114,-0.19142 z"
       id="path4010-2-7-6-1-3-1"
       sodipodi:nodetypes="csccc" />
    <path
       style="fill:#f57800;fill-opacity:1;stroke:none"
       d="m 81.80249,123.0141 c 0.86131,-0.44019 4.166895,1.59614 7.938011,2.30496 2.746735,0.48657 8.134775,0.82197 8.063797,1.96632 -0.150119,0.88046 -0.582862,1.07153 -1.228435,1.09237 -3.373722,-0.58068 -6.574368,-0.97951 -10.174535,-1.27696 -1.497776,-0.0137 -4.28911,0.35983 -5.265196,-0.0865 -1.366986,-1.368 -0.7151,-2.98157 0.666358,-4.00018 z"
       id="path4555-9"
       sodipodi:nodetypes="ccccccc" />
    <path
       style="fill:#ce5d01;fill-opacity:1;stroke:none"
       d="m 81.108753,123.93265 c -0.679693,0.92896 -0.79011,2.07036 0.209916,3.07408 0.956307,0.43859 3.692889,0.058 5.160327,0.0715 3.527241,0.29229 6.647939,0.68048 9.953318,1.25108 0.632495,-0.0205 1.059913,-0.20719 1.206987,-1.07235 0.0023,-0.0351 0.0081,-0.0558 0,-0.0894 -0.210749,0.41731 -0.539343,0.5374 -0.979589,0.55405 -3.24801,-0.65477 -6.329852,-1.11228 -9.795879,-1.44768 -1.441968,-0.0155 -4.13314,0.41393 -5.072867,-0.0894 -0.61736,-0.7236 -0.792139,-1.5043 -0.682213,-2.25194 z"
       id="path4555-9-4" />
    <path
       style="fill:#312c29;fill-opacity:1;fill-rule:nonzero;stroke:none"
       d="m 87.284869,124.84544 c -0.733084,0 -1.356467,0.29811 -1.642599,0.72754 0.479868,-0.32422 1.289935,-0.54565 2.196084,-0.54565 0.153062,0 0.30037,0.0247 0.446359,0.0364 -0.286641,-0.13013 -0.630416,-0.21826 -0.999844,-0.21826 z"
       id="path4593" />
    <path
       style="fill:#312c29;fill-opacity:1;fill-rule:nonzero;stroke:none"
       d="m 88.10165,124.98016 c -0.733079,0 -1.356462,0.32413 -1.642599,0.79106 0.479873,-0.35253 1.289934,-0.5933 2.196083,-0.5933 0.153062,0 0.30037,0.0269 0.446359,0.0396 -0.286641,-0.14149 -0.630415,-0.23731 -0.999843,-0.23731 z"
       id="path4593-6" />
    <path
       style="fill:#312c29;fill-opacity:1;fill-rule:nonzero;stroke:none"
       d="m 81.062766,125.481 c 0.0029,0.7468 0.297359,1.3808 0.719904,1.67079 -0.319944,-0.48772 -0.540132,-1.31216 -0.543286,-2.23526 -5.08e-4,-0.15592 0.0232,-0.30608 0.03417,-0.45483 -0.126757,0.29246 -0.212058,0.64297 -0.21075,1.01931 z"
       id="path4593-6-5" />
    <path
       style="fill:#312c29;fill-opacity:1;fill-rule:nonzero;stroke:none"
       d="m 81.550164,125.75368 c 0.04199,0.74557 0.36985,1.36249 0.807096,1.62891 -0.345237,-0.46948 -0.608642,-1.28066 -0.660542,-2.20225 -0.0087,-0.15566 0.007,-0.3069 0.01011,-0.45604 -0.111126,0.29898 -0.177795,0.65366 -0.156616,1.02938 z"
       id="path4593-6-5-0" />
    <path
       style="fill:#312c29;fill-opacity:1;fill-rule:nonzero;stroke:none"
       d="m 82.055073,125.99966 c 0.04051,0.68761 0.366857,1.26213 0.803177,1.51582 -0.344003,-0.43901 -0.605585,-1.19126 -0.655646,-2.04121 -0.0085,-0.14356 0.0076,-0.28259 0.01097,-0.41991 -0.111605,0.27331 -0.178898,0.59878 -0.158472,0.9453 z"
       id="path4593-6-5-8" />
    <g
       id="g3033"
       transform="translate(-75.660425,-33.941125)">
      <path
         sodipodi:type="arc"
         style="fill:#1a1a1a;fill-opacity:1;fill-rule:nonzero;stroke:none"
         id="path3006"
         sodipodi:cx="266.82455"
         sodipodi:cy="48.852654"
         sodipodi:rx="37.866428"
         sodipodi:ry="2.9871845"
         d="m 304.69098,48.852654 c 0,1.649776 -16.95337,2.987184 -37.86643,2.987184 -20.91305,0 -37.86642,-1.337408 -37.86642,-2.987184 0,-1.649777 16.95337,-2.987185 37.86642,-2.987185 20.91306,0 37.86643,1.337408 37.86643,2.987185 z"
         transform="matrix(0.63189908,-0.13069787,0.07509067,0.82378109,-21.345629,141.90332)" />
      <path
         style="fill:#1a1a1a;fill-opacity:1;fill-rule:nonzero;stroke:none"
         d="m 142.28717,145.88295 c -10.69304,1.97758 -15.31198,5.17882 -15.2674,6.00426 0.0413,0.76456 6.98947,0.23932 16.51874,-1.1355 1.52466,-1.15556 2.58868,-4.16406 2.39387,-5.35044 -0.007,-0.0467 -2.48559,0.52766 -0.2865,1.63073 l -3.35871,-1.14905 z"
         id="path3010"
         sodipodi:nodetypes="cscscc" />
      <path
         style="fill:#1a1a1a;fill-opacity:1;stroke:none"
         d="m 161.84969,144.53977 c -0.68785,-3.08372 -1.51573,-6.10673 -2.0326,-9.25695 -0.19521,-1.21892 -0.45647,-2.50823 -1.66,-2.76141 -1.14453,-0.19624 0.55953,-1.14909 -1.07101,-1.64362 -1.23625,-0.78054 0.91949,-1.77498 0.10886,-2.76539 -1.01045,-2.92639 -2.71211,-5.60258 -4.48413,-8.18698 -3.51234,1.76117 -6.99437,3.58417 -10.52568,5.30666 -2.9104,0.95771 -5.82078,1.91541 -8.73118,2.87311 0.59499,2.40198 1.3017,4.96836 3.20877,6.79683 0.66257,0.88319 2.23423,0.20602 1.64624,1.98328 -0.29679,0.8971 1.94565,0.42709 1.07835,1.35718 -0.91157,0.97757 0.47721,2.20537 0.4943,3.19107 0.11875,1.34377 -0.0882,2.56543 -0.53482,3.81695 -0.54993,1.27647 -1.01827,2.21524 -1.56822,3.49171 4.54169,-0.46241 9.09143,-0.88768 13.62806,-1.37327 3.48103,-0.94306 6.96203,-1.88612 10.44304,-2.82917 z"
         id="path3012"
         sodipodi:nodetypes="cccccccccssccccc" />
      <path
         style="fill:#1a1a1a;fill-opacity:1;stroke:none"
         d="m 140.89154,126.36114 -7.51786,1.82399 c 0.59498,2.40198 1.30727,4.9649 3.21435,6.79338 0.66255,0.88318 2.22709,0.20005 1.6391,1.97732 -0.29679,0.8971 1.95293,0.44034 1.08564,1.37042 -0.91158,0.97757 0.47251,2.20543 0.4896,3.19113 0.11875,1.34376 -0.0856,2.56607 -0.53218,3.8176 -0.54993,1.27647 -1.0253,2.20831 -1.57524,3.48478 2.70397,-0.27529 5.40514,-0.5527 8.11038,-0.82225 0.49084,-1.98587 0.78762,-4.12819 0.78762,-6.38225 0,-6.83859 -2.06532,-12.25313 -5.70141,-15.25412 z"
         id="path3014"
         sodipodi:nodetypes="cccssccccsc" />
      <path
         style="fill:#1a1a1a;fill-opacity:1;stroke:none"
         d="m 133.29078,128.14271 c 0,0 5.56227,-3.143 8.40447,-4.57767 3.5378,-1.78577 11.17878,-3.71466 11.17878,-3.71466 0,0 -7.11502,3.96323 -10.36281,5.81589 -2.71456,1.5485 -9.22044,2.47644 -9.22044,2.47644 z"
         id="path3016"
         sodipodi:nodetypes="cscsc" />
      <path
         style="fill:#1a1a1a;fill-opacity:1;fill-rule:nonzero;stroke:none"
         d="m 138.18151,137.20045 c 1.29051,-0.90975 3.64513,-1.92408 6.47837,-2.71739 2.53087,-0.70865 4.91159,-1.08934 6.65178,-1.1248 -1.4296,-0.27956 -4.02656,-0.0121 -6.8576,0.79066 -2.9852,0.84641 -5.38582,2.05389 -6.27255,3.05153 z"
         id="path3018" />
      <path
         style="fill:#1a1a1a;fill-opacity:1;fill-rule:nonzero;stroke:none"
         d="m 139.36438,138.41261 c 1.0353,-0.73863 2.92432,-1.56216 5.19731,-2.20626 2.0304,-0.57536 3.94035,-0.88444 5.33643,-0.91323 -1.14691,-0.22697 -3.23034,-0.01 -5.50155,0.64194 -2.3949,0.68721 -4.3208,1.66756 -5.03219,2.47755 z"
         id="path3020" />
      <path
         style="fill:#1a1a1a;fill-opacity:1;fill-rule:nonzero;stroke:none"
         d="m 139.16187,146.06804 c 1.0353,-0.73863 2.92432,-1.56217 5.19731,-2.20627 2.0304,-0.57535 3.94036,-0.88443 5.33644,-0.91323 -1.14691,-0.22696 -3.23033,-0.01 -5.50155,0.64195 -2.3949,0.6872 -4.32081,1.66755 -5.0322,2.47755 z"
         id="path3022" />
      <g
         id="g2993">
        <path
           sodipodi:type="arc"
           style="fill:#c17d11;fill-opacity:1;fill-rule:nonzero;stroke:none"
           id="path2911-4"
           sodipodi:cx="266.82455"
           sodipodi:cy="48.852654"
           sodipodi:rx="37.672874"
           sodipodi:ry="2.0962648"
           d="m 304.49743,48.852654 c 0,1.157735 -16.86672,2.096264 -37.67288,2.096264 -20.80615,0 -37.67287,-0.938529 -37.67287,-2.096264 0,-1.157736 16.86672,-2.096265 37.67287,-2.096265 20.80616,0 37.67288,0.938529 37.67288,2.096265 z"
           transform="matrix(0.53368881,-0.09964848,0.03740716,0.76738681,6.5883195,135.8044)" />
        <path
           style="fill:#a56b0f;fill-opacity:1;fill-rule:nonzero;stroke:none"
           d="m 168.71616,142.64715 c 0.12464,1.18363 -9.40616,3.0231 -18.40937,4.84838 -8.46873,1.71693 -15.92369,2.80805 -19.29458,2.89706 2.24025,0.27505 10.1884,-0.36314 19.58323,-2.05697 11.10402,-2.00198 20.1101,-4.5323 20.06679,-5.39017 -0.007,-0.13779 -1.50375,-0.24968 -1.94607,-0.2983 z"
           id="path2911-4-2"
           sodipodi:nodetypes="cscssc" />
        <path
           style="fill:#a56b0f;fill-opacity:1;fill-rule:nonzero;stroke:none"
           d="m 146.08942,145.98727 c -8.9687,1.83727 -15.65993,3.74385 -15.62254,4.51072 0.0346,0.71032 5.86236,0.22234 13.85496,-1.05493 1.27879,-1.07357 1.94883,-2.22627 1.78544,-3.32847 -0.006,-0.0434 -0.009,-0.0846 -0.0179,-0.12732 z"
           id="path2911-4-7" />
        <path
           style="fill:#c17d11;fill-opacity:1;stroke:none"
           d="m 159.68019,143.67187 c -0.57693,-2.86492 -1.27131,-5.67344 -1.70483,-8.60014 -0.16373,-1.13244 -0.38286,-2.33027 -1.39231,-2.56548 -0.95997,-0.18232 0.4693,-1.06756 -0.8983,-1.527 -1.0369,-0.72516 0.77121,-1.64904 0.0913,-2.56918 -0.8475,-2.71876 -2.27476,-5.20506 -3.76102,-7.60609 -2.94595,1.63621 -5.86647,3.32986 -8.82833,4.93014 -2.44107,0.88975 -4.88213,1.7795 -7.3232,2.66925 0.49904,2.23155 1.09179,4.61584 2.69133,6.31458 0.55572,0.82052 1.87394,0.1914 1.38077,1.84256 -0.24893,0.83345 1.63189,0.39679 0.90445,1.26088 -0.76457,0.90821 0.40026,2.0489 0.41459,2.96466 0.0996,1.24842 -0.074,2.3834 -0.44857,3.54613 -0.46125,1.1859 -0.85407,2.05806 -1.31533,3.24396 3.8093,-0.4296 7.62536,-0.8247 11.43042,-1.27583 2.91968,-0.87615 5.83934,-1.7523 8.75901,-2.62844 z"
           id="path2913-0"
           sodipodi:nodetypes="cccccccccssccccc" />
        <path
           style="fill:#af710f;fill-opacity:1;stroke:none"
           d="m 142.10171,126.78307 -6.30554,1.69457 c 0.49904,2.23155 1.09646,4.61263 2.69601,6.31137 0.55571,0.82052 1.86795,0.18586 1.37478,1.83702 -0.24893,0.83345 1.63801,0.4091 0.91057,1.27319 -0.76458,0.90821 0.39632,2.04895 0.41065,2.96471 0.0996,1.24842 -0.0718,2.384 -0.44636,3.54673 -0.46125,1.1859 -0.85996,2.05163 -1.32122,3.23753 2.26793,-0.25576 4.53352,-0.51349 6.80251,-0.76391 0.41169,-1.84497 0.66061,-3.83529 0.66061,-5.92941 0,-6.35338 -1.73227,-11.38374 -4.78201,-14.1718 z"
           id="path2913-0-5"
           sodipodi:nodetypes="cccssccccsc" />
        <path
           style="fill:#8f5902;fill-opacity:1;stroke:none"
           d="m 135.72664,128.43823 c 0,0 4.66531,-2.92 7.04918,-4.25287 2.9673,-1.65907 9.37611,-3.4511 9.37611,-3.4511 0,0 -5.96767,3.68203 -8.69172,5.40324 -2.27682,1.43863 -7.73357,2.30073 -7.73357,2.30073 z"
           id="path3705-9"
           sodipodi:nodetypes="cscsc" />
        <path
           style="fill:#8f5902;fill-opacity:1;fill-rule:nonzero;stroke:none"
           d="m 139.8287,136.8533 c 1.0824,-0.8452 3.05732,-1.78756 5.43368,-2.52459 2.12274,-0.65837 4.11955,-1.01204 5.57912,-1.04499 -1.19906,-0.25972 -3.37724,-0.0112 -5.75175,0.73456 -2.50381,0.78636 -4.51731,1.90816 -5.26105,2.83502 z"
           id="path3905-22" />
        <path
           style="fill:#8f5902;fill-opacity:1;fill-rule:nonzero;stroke:none"
           d="m 140.82082,137.97945 c 0.86835,-0.68622 2.45275,-1.45132 4.3592,-2.04972 1.70298,-0.53453 3.30494,-0.82168 4.47589,-0.84843 -0.96196,-0.21087 -2.70942,-0.009 -4.61438,0.59639 -2.0087,0.63845 -3.62404,1.54924 -4.22071,2.30176 z"
           id="path3905-22-1" />
        <path
           style="fill:#8f5902;fill-opacity:1;fill-rule:nonzero;stroke:none"
           d="m 140.65097,145.09171 c 0.86835,-0.68622 2.45275,-1.45133 4.3592,-2.04973 1.70298,-0.53453 3.30494,-0.82168 4.47589,-0.84843 -0.96196,-0.21086 -2.70941,-0.009 -4.61438,0.5964 -2.0087,0.63844 -3.62404,1.54923 -4.22071,2.30176 z"
           id="path3905-22-1-8" />
      </g>
    </g>
  </g>
</svg>
