<?xml version="1.0" encoding="UTF-8" standalone="no"?>
<!-- Created with Inkscape (http://www.inkscape.org/) -->

<svg
   xmlns:dc="http://purl.org/dc/elements/1.1/"
   xmlns:cc="http://creativecommons.org/ns#"
   xmlns:rdf="http://www.w3.org/1999/02/22-rdf-syntax-ns#"
   xmlns:svg="http://www.w3.org/2000/svg"
   xmlns="http://www.w3.org/2000/svg"
   xmlns:xlink="http://www.w3.org/1999/xlink"
   xmlns:sodipodi="http://sodipodi.sourceforge.net/DTD/sodipodi-0.dtd"
   xmlns:inkscape="http://www.inkscape.org/namespaces/inkscape"
   height="49.999992"
   id="svg2"
   inkscape:version="0.47pre4 r22446"
   sodipodi:docname="ice.svg"
   sodipodi:version="0.32"
   width="59"
   version="1.1">
  <metadata
     id="metadata3">
    <rdf:RDF>
      <cc:Work
         rdf:about="">
        <dc:title>icicles</dc:title>
        <dc:description />
        <dc:subject>
          <rdf:Bag>
            <rdf:li>icicle</rdf:li>
            <rdf:li>weather</rdf:li>
            <rdf:li>xmas</rdf:li>
          </rdf:Bag>
        </dc:subject>
        <dc:publisher>
          <cc:Agent
             rdf:about="http://www.openclipart.org">
            <dc:title>Open Clip Art Library</dc:title>
          </cc:Agent>
        </dc:publisher>
        <dc:creator>
          <cc:Agent>
            <dc:title>Benji Park</dc:title>
          </cc:Agent>
        </dc:creator>
        <dc:rights>
          <cc:Agent>
            <dc:title>Benji Park</dc:title>
          </cc:Agent>
        </dc:rights>
        <dc:date />
        <dc:format>image/svg+xml</dc:format>
        <dc:type
           rdf:resource="http://purl.org/dc/dcmitype/StillImage" />
        <cc:license
           rdf:resource="http://web.resource.org/cc/PublicDomain" />
        <dc:language>en</dc:language>
      </cc:Work>
      <cc:License
         rdf:about="http://web.resource.org/cc/PublicDomain">
        <cc:permits
           rdf:resource="http://web.resource.org/cc/Reproduction" />
        <cc:permits
           rdf:resource="http://web.resource.org/cc/Distribution" />
        <cc:permits
           rdf:resource="http://web.resource.org/cc/DerivativeWorks" />
      </cc:License>
    </rdf:RDF>
  </metadata>
  <defs
     id="defs3">
    <inkscape:perspective
       sodipodi:type="inkscape:persp3d"
       inkscape:vp_x="0 : 196.875 : 1"
       inkscape:vp_y="0 : 1000 : 0"
       inkscape:vp_z="468.75 : 196.875 : 1"
       inkscape:persp3d-origin="234.375 : 131.25 : 1"
       id="perspective32" />
    <linearGradient
       id="linearGradient2195">
      <stop
         id="stop2197"
         offset="0.0000000"
         style="stop-color: rgb(0, 0, 0); stop-opacity: 1;" />
      <stop
         id="stop2199"
         offset="1.0000000"
         style="stop-color: rgb(255, 255, 255); stop-opacity: 0;" />
    </linearGradient>
    <linearGradient
       id="linearGradient2185">
      <stop
         id="stop2187"
         offset="0.0000000"
         style="stop-color: rgb(255, 255, 255); stop-opacity: 1;" />
      <stop
         id="stop2189"
         offset="1.0000000"
         style="stop-color: rgb(128, 204, 255); stop-opacity: 1;" />
    </linearGradient>
    <linearGradient
       id="linearGradient2177">
      <stop
         id="stop2179"
         offset="0.0000000"
         style="stop-color: rgb(0, 115, 195); stop-opacity: 1;" />
      <stop
         id="stop2181"
         offset="1.0000000"
         style="stop-color: rgb(128, 204, 255); stop-opacity: 1;" />
    </linearGradient>
    <linearGradient
       id="linearGradient2164">
      <stop
         id="stop2166"
         offset="0.0000000"
         style="stop-color: rgb(0, 130, 219); stop-opacity: 1;" />
      <stop
         id="stop2168"
         offset="1.0000000"
         style="stop-color: rgb(74, 118, 147); stop-opacity: 1;" />
    </linearGradient>
    <linearGradient
       id="linearGradient2156">
      <stop
         id="stop2158"
         offset="0.0000000"
         style="stop-color: rgb(0, 130, 219); stop-opacity: 1;" />
      <stop
         id="stop2160"
         offset="1.0000000"
         style="stop-color: rgb(127, 202, 253); stop-opacity: 0;" />
    </linearGradient>
    <linearGradient
       id="linearGradient2150">
      <stop
         id="stop2152"
         offset="0.0000000"
         style="stop-color: rgb(0, 130, 219); stop-opacity: 1;" />
      <stop
         id="stop2154"
         offset="1.0000000"
         style="stop-color: rgb(127, 202, 253); stop-opacity: 0;" />
    </linearGradient>
    <linearGradient
       gradientTransform="matrix(1.0587854,0,0,0.87766676,4.2568777,-262.13866)"
       gradientUnits="userSpaceOnUse"
       id="linearGradient2148"
       inkscape:collect="always"
       x1="281.21417"
       x2="287.50183"
       xlink:href="#linearGradient2177"
       y1="316.94922"
       y2="527.48425" />
    <linearGradient
       gradientTransform="scale(1.09653,0.911969)"
       gradientUnits="userSpaceOnUse"
       id="linearGradient2170"
       inkscape:collect="always"
       spreadMethod="reflect"
       x1="96.214279"
       x2="112.08481"
       xlink:href="#linearGradient2164"
       y1="387.29123"
       y2="387.29123" />
    <linearGradient
       gradientTransform="scale(1.09653,0.911969)"
       gradientUnits="userSpaceOnUse"
       id="linearGradient2174"
       inkscape:collect="always"
       spreadMethod="reflect"
       x1="282.47449"
       x2="305.01108"
       xlink:href="#linearGradient2164"
       y1="573.82178"
       y2="575.31769" />
    <linearGradient
       gradientTransform="matrix(1.09653,0,0,0.911969,87.8571,25)"
       gradientUnits="userSpaceOnUse"
       id="linearGradient2191"
       inkscape:collect="always"
       x1="213.91663"
       x2="233.68352"
       xlink:href="#linearGradient2185"
       y1="548.56024"
       y2="547.63104" />
    <linearGradient
       gradientTransform="matrix(1.09653,0,0,0.911969,164.286,50)"
       gradientUnits="userSpaceOnUse"
       id="linearGradient2201"
       inkscape:collect="always"
       x1="263.86725"
       x2="225.17848"
       xlink:href="#linearGradient2195"
       y1="527.9303"
       y2="524.46271" />
    <linearGradient
       inkscape:collect="always"
       xlink:href="#linearGradient2177"
       id="linearGradient2848"
       gradientUnits="userSpaceOnUse"
       gradientTransform="matrix(0.14231595,0,0,-0.12003696,60.743615,232.35491)"
       x1="281.21417"
       y1="316.94922"
       x2="287.50183"
       y2="527.48425" />
  </defs>
  <sodipodi:namedview
     bordercolor="#666666"
     borderopacity="1.0"
     id="base"
     inkscape:current-layer="layer1"
     inkscape:cx="58.134462"
     inkscape:cy="15.101651"
     inkscape:document-units="px"
     inkscape:pageopacity="0.0"
     inkscape:pageshadow="2"
     inkscape:window-height="1002"
     inkscape:window-width="1680"
     inkscape:window-x="-2"
     inkscape:window-y="-3"
     inkscape:zoom="21.794126"
     pagecolor="#ffffff"
     showgrid="false"
     inkscape:window-maximized="1" />
  <g
     id="layer1"
     inkscape:groupmode="layer"
     inkscape:label="Layer 1"
     transform="translate(-71.520993,-144.71915)">
    <path
       d="m 71.543804,194.67213 c 0,0 0,-2.2094 0.139057,-2.82051 0.337407,-2.06676 -0.185732,-6.32936 -0.152192,-8.25589 0.07528,-1.24532 -0.303471,-6.29432 0.70851,-6.89417 1.013303,-14.41752 -0.130956,1.28194 2.178491,6.21843 0.185409,0.42308 0.417174,0.47009 0.602585,1.17522 0.18541,0.70513 0.37082,1.17522 0.463528,1.6453 0.0927,0.47008 0.04635,0.84615 0.278115,1.03419 0.231765,0.18803 0.139059,0.94017 0.185412,1.26923 0.04635,0.32906 0.0927,0.98718 0.50988,0.94017 0.417171,-0.047 0.695291,-1.59829 0.695291,-2.63248 0,-1.03419 0.324467,-1.26923 0.37082,-1.78632 0.04635,-0.5171 0.185412,-1.78633 0.324468,-2.20941 0.139059,-0.42307 0.463528,-0.70512 0.370824,-1.17521 -0.0927,-0.47009 -0.06953,-1.57479 0.185409,-1.6453 0.424246,-0.11734 0.602586,0.32906 0.834349,0.32906 0.231763,0 0.278117,-0.89316 0.278117,-1.17521 0,-0.28206 0.139058,-1.55129 0.18541,-1.92735 0.04635,-0.37607 0.04635,-1.73932 0.139057,-2.96154 0.03585,-0.46868 -0.04635,-1.55129 0.0927,-2.25641 0.139061,-0.70513 0.0927,-1.26924 0.185412,-1.69231 0.0927,-0.42308 -0.04635,-1.50427 0.417174,-1.50427 0.463525,0 0.417175,0.42307 0.602585,1.45726 0.185412,1.03419 -0.09271,1.26923 0.09271,1.69231 0.185409,0.42307 0.509878,1.03419 0.417172,1.59829 -0.0927,0.5641 -0.185409,1.22222 0,1.50427 0.185412,0.28205 0.278117,0.98718 0.278117,1.50428 0,0.51709 -0.278117,0.5641 0.04635,1.03418 0.324468,0.47009 0.139059,2.06838 0.324468,2.63248 0.185411,0.56411 0.509881,0.89317 0.463528,2.1624 -0.04635,1.26923 -0.0927,2.44444 0.0927,2.86752 0.185409,0.42308 0.139056,1.0812 0.509878,0.94017 0.370823,-0.14103 0.324468,-0.23504 0.417175,-1.03419 0.09271,-0.79914 0.13906,-2.25641 0.18541,-2.63248 0.04635,-0.37607 0.139059,-0.75213 0.32447,-1.0812 0.185411,-0.32905 0.556234,-1.50427 0.556234,-1.88034 0,-0.37606 0.324467,-1.26923 0.278115,-1.55128 -0.04635,-0.28205 -0.370822,-0.89316 -0.139058,-1.36325 0.231765,-0.47008 0.18541,-0.89316 0.231765,-1.26923 0.04635,-0.37607 0.0927,-1.1282 0.18541,-1.55128 0.0927,-0.42307 0.648937,-1.12821 0.787994,-0.28205 0.13906,0.84615 0.370822,1.50427 0.417177,2.25641 0.04635,0.75214 -0.139057,0.89316 -0.04635,1.50427 0.0927,0.61111 0.231764,1.03419 0.18541,1.50428 -0.04635,0.47008 0.09271,1.59829 0.09271,2.30342 0,0.70512 0.231763,1.26923 0.324468,1.59828 0.09271,0.32907 0.09271,0.65812 0.324472,1.12821 0.231761,0.47009 0.41717,1.97436 1.019756,1.50427 0.602586,-0.47008 1.436934,-2.20939 1.436934,-3.14957 0,-0.94017 0.50988,-1.03419 0.602586,-1.6453 0.0927,-0.61111 0.278115,-2.67948 0.324469,-3.05555 0.04635,-0.37607 0.324466,-5.12394 0.50988,-5.92308 0.185409,-0.79915 0.278115,-0.98718 0.324467,-1.88034 0.04635,-0.89316 -0.185409,-0.98718 0,-1.83334 0.185412,-0.84615 0.463528,-2.02136 0.463528,-2.53846 0,-0.51709 0.278115,-0.37607 0.278115,-0.79914 0,-0.42308 -0.324469,-0.75214 -0.231764,-1.59829 0.09271,-0.84616 0.13906,-3.19659 0.370824,-3.71368 0.231762,-0.5171 -0.04635,-1.69231 0.04635,-2.02137 0.0927,-0.32906 -0.139056,-0.65812 0,-1.59829 0.139059,-0.94017 0.370824,-2.96154 0.463528,-3.8547 0.0927,-0.89316 0.185411,-1.50427 0.139056,-2.25641 -0.04635,-0.75213 0.231767,-1.26923 0.231767,-1.78633 0,-0.51709 -0.09271,-2.11538 0.324468,-2.2094 0.417172,-0.094 0.695291,-0.18803 0.741642,0.98718 0.04635,1.17521 -0.04635,3.33761 0.04635,3.99573 0.0927,0.65812 0.370821,1.78632 0.324466,2.49145 -0.04635,0.70513 -0.324466,1.55129 -0.231762,1.97436 0.0927,0.42308 0.324467,1.69231 0.324467,2.1624 0,0.47008 -0.04635,1.45726 -0.04635,1.92734 0,0.47009 -0.324601,1.07893 -0.04635,1.55129 1.066113,1.80983 0.440351,3.05555 0.764823,3.57265 0.324466,0.51709 0.393996,0.51709 0.393996,1.88034 0,1.36325 0.324468,1.83333 0.278113,2.58547 -0.04635,0.75214 -0.278113,1.31624 0.04635,1.83333 0.324469,0.5171 -0.04635,2.39744 0.185411,2.96155 0.231762,0.5641 0.139058,0.98717 0.231762,1.64529 0.0927,0.65812 0,0.5171 0.139059,1.03419 0.139058,0.51709 0.417172,0.32906 0.231763,1.22222 -0.185411,0.89316 0.0927,0.98718 0.04635,1.50428 -0.04635,0.51709 0,3.43162 0.0927,3.99572 0.09271,0.5641 -0.185409,1.31624 0.139059,1.69231 0.32447,0.37607 0.509879,0.42308 0.64894,-0.89316 0.139057,-1.31624 0.324467,-2.77351 0.556232,-3.38462 0.231762,-0.61111 0.509879,-2.25641 0.695289,-2.91453 0.18541,-0.65812 0.648936,-1.08119 0.556231,-2.11538 -0.0927,-1.03419 0.231765,-1.22222 0.278115,-1.88034 0.0463,-0.65812 -0.0463,-1.64531 0.37083,-1.50428 0.41717,0.14103 0.55623,0.47009 0.60258,1.6453 0.0463,1.17522 0.32447,1.6453 0.41717,2.11539 0.0927,0.47008 -0.0927,1.08119 0,2.02136 0.0927,0.94018 0.0927,1.55129 0.23176,2.06838 0.13907,0.51709 0.55624,1.88034 0.46354,2.2094 -0.0927,0.32906 0.0927,2.06838 0.0927,2.06838 0,0 0.32446,0.89316 0.55623,-0.18803 0.23176,-1.0812 -0.0463,-2.82052 0.18541,-3.38462 0.23176,-0.5641 0.32447,-1.22222 0.37082,-1.92735 0.0463,-0.70513 0.23177,-1.92735 0.50988,-1.55129 0.27812,0.37607 0.60259,1.78633 0.60259,2.35043 0,0.56411 -0.0463,1.26924 0.13906,1.83334 0.1854,0.5641 -0.015,1.47047 0.13905,2.30341 0.41717,2.25642 0.55624,1.50428 1.7614,2.25642 1.20517,0.75213 0.92706,1.1282 1.94681,0.61111 1.01977,-0.51709 1.48329,-2.02137 1.71505,-2.49145 0.23178,-0.47009 0.23178,-1.6453 0.46354,-2.02137 0.23176,-0.37607 0.23176,-1.78633 0.37081,-2.35043 0.13906,-0.5641 -0.23176,-1.17522 0.0463,-1.59829 0.27813,-0.42308 0.46354,-1.03419 0.13907,-1.73932 -0.32447,-0.70513 0.37082,-2.63247 0.55623,-3.24359 0.1854,-0.61111 0.37082,-2.49145 0.46353,-3.00855 0.0927,-0.51709 0.0463,-2.2094 0.64893,-1.92735 0.60259,0.28206 0.64894,0.89317 0.64894,1.6453 0,0.75214 -0.18541,1.12821 0.18541,1.92735 0.37082,0.79915 0.50988,2.7265 0.37082,3.19659 -0.13905,0.47008 0.23176,0.42307 0.27812,0.84615 0.0463,0.42308 0.13905,1.36325 0.37082,1.92735 0.23177,0.5641 -0.37082,1.03419 0.0463,1.36325 0.41717,0.32906 0.92706,1.83333 0.8807,2.30342 -0.0463,0.47008 0.18541,1.31624 0.27812,1.88034 0.0927,0.5641 0.55623,3.10256 0.55623,3.76068 0,0.65812 0.50987,2.30342 1.34422,0.89317 0.83435,-1.41026 0.55624,-3.71368 0.6953,-3.99573 0.13905,-0.28205 0.23176,-2.63248 0.32446,-3.38462 0.0927,-0.75213 0.83435,-1.97436 0.50989,-2.63248 -0.32447,-0.65812 -0.41717,-2.30341 -0.0927,-2.63248 0.32446,-0.32905 -0.41718,-0.84615 -0.0927,-1.41025 0.32446,-0.5641 0.41716,-2.02137 0.46352,-2.44445 0.0463,-0.42307 0.46353,-0.84615 0.37082,-1.36325 -0.0927,-0.51709 -0.1854,-3.24358 0.18541,-4.32478 0.37082,-1.0812 0.0927,-1.78633 0.18541,-2.39744 0.0927,-0.61111 0.0927,-1.78632 0.46353,-2.06838 0.37082,-0.28205 1.01976,0.047 0.8807,0.5171 -0.13905,0.47008 -0.13905,0.70513 0.13906,1.36325 0.27811,0.65812 0.37082,1.03418 0.37082,1.83333 0,0.79915 0.18542,0.75214 0.18542,1.22222 0,0.47009 -0.41718,0.37607 -0.0463,1.26924 0.37081,0.89316 0.55622,1.73931 0.55622,2.58546 0,0.84616 0.0463,1.55129 0.13906,2.25642 0.0928,0.70512 0.50988,0.65812 0.46353,1.78632 -0.0463,1.12821 -0.41718,0.98718 0.0463,1.59829 0.46353,0.61111 0.50988,0 0.37082,1.50427 -0.13906,1.50428 -0.64893,1.83334 -0.23176,2.35043 0.41718,0.5171 0.74164,2.96154 0.64894,3.66667 -0.0927,0.70513 -0.32447,0.94017 -0.18541,1.45727 0.13905,0.51709 0.23176,1.26923 0.23176,1.64529 0,0.37607 0.64894,2.67949 0.64894,2.96154 0,0.28205 0.41717,1.78633 0.69529,0.89317 0.27812,-0.89317 0,-1.78633 0.0927,-2.06838 0.0927,-0.28205 0.0463,-2.96154 0.23176,-3.43162 0.18541,-0.47009 0.41717,-1.88034 0.41717,-2.39744 0,-0.5171 -0.13905,-0.56411 -0.0463,-1.31624 0.0927,-0.75214 0.37083,-0.5641 0.46353,-0.84615 0.19585,-2.11279 0.38952,-2.22332 0.83435,-0.18804 0.13906,0.18804 0.27812,0.61111 0.46353,1.55128 0.78859,2.97139 0.81341,3.97548 1.99978,6.99251 0.21186,2.06078 0.21305,4.81469 0.1788,7.01604 l -58.960634,-0.047 z"
       sodipodi:nodetypes="ccccccccccccccccccccccccccccccccccccccccccccccccccccccccccccccccccccccccccccccccccccccccccccccccccccccccccccccccccccccccccccccccccccccccccccccccccccccccccccc"
       style="fill:url(#linearGradient2848);fill-opacity:1;fill-rule:evenodd;stroke:none"
       id="path32" />
  </g>
</svg>
