<?xml version="1.0" encoding="UTF-8" standalone="no"?>
<!-- Created with Inkscape (http://www.inkscape.org/) -->

<svg
   xmlns:dc="http://purl.org/dc/elements/1.1/"
   xmlns:cc="http://creativecommons.org/ns#"
   xmlns:rdf="http://www.w3.org/1999/02/22-rdf-syntax-ns#"
   xmlns:svg="http://www.w3.org/2000/svg"
   xmlns="http://www.w3.org/2000/svg"
   xmlns:xlink="http://www.w3.org/1999/xlink"
   xmlns:sodipodi="http://sodipodi.sourceforge.net/DTD/sodipodi-0.dtd"
   xmlns:inkscape="http://www.inkscape.org/namespaces/inkscape"
   width="51.75"
   height="38.875"
   id="svg2"
   version="1.1"
   inkscape:version="0.47 r22583"
   sodipodi:docname="grave.svg">
  <defs
     id="defs4">
    <linearGradient
       id="linearGradient3599"
       inkscape:collect="always">
      <stop
         id="stop3601"
         offset="0"
         style="stop-color:#cccc9e;stop-opacity:1;" />
      <stop
         id="stop3603"
         offset="1"
         style="stop-color:#ffffff;stop-opacity:1" />
    </linearGradient>
    <inkscape:perspective
       sodipodi:type="inkscape:persp3d"
       inkscape:vp_x="0 : 526.18109 : 1"
       inkscape:vp_y="0 : 1000 : 0"
       inkscape:vp_z="744.09448 : 526.18109 : 1"
       inkscape:persp3d-origin="372.04724 : 350.78739 : 1"
       id="perspective10" />
    <inkscape:perspective
       id="perspective5088"
       inkscape:persp3d-origin="120.75 : 85.666667 : 1"
       inkscape:vp_z="241.5 : 128.5 : 1"
       inkscape:vp_y="0 : 1000 : 0"
       inkscape:vp_x="0 : 128.5 : 1"
       sodipodi:type="inkscape:persp3d" />
    <inkscape:perspective
       id="perspective5136"
       inkscape:persp3d-origin="0.5 : 0.33333333 : 1"
       inkscape:vp_z="1 : 0.5 : 1"
       inkscape:vp_y="0 : 1000 : 0"
       inkscape:vp_x="0 : 0.5 : 1"
       sodipodi:type="inkscape:persp3d" />
    <radialGradient
       inkscape:collect="always"
       xlink:href="#linearGradient5119-8"
       id="radialGradient5125-1"
       cx="387.92657"
       cy="508.77591"
       fx="387.92657"
       fy="508.77591"
       r="76.895416"
       gradientTransform="matrix(2.7112684,0.20839086,-0.16112776,2.0963519,-581.86859,-638.63781)"
       gradientUnits="userSpaceOnUse" />
    <linearGradient
       inkscape:collect="always"
       id="linearGradient5119-8">
      <stop
         style="stop-color:#cccc9e;stop-opacity:1;"
         offset="0"
         id="stop5121-7" />
      <stop
         style="stop-color:#cccc9e;stop-opacity:0;"
         offset="1"
         id="stop5123-0" />
    </linearGradient>
    <radialGradient
       r="76.895416"
       fy="508.77591"
       fx="387.92657"
       cy="508.77591"
       cx="387.92657"
       gradientTransform="matrix(0.64720379,0.04974491,-0.03846249,0.50041775,39.293204,340.0186)"
       gradientUnits="userSpaceOnUse"
       id="radialGradient5145"
       xlink:href="#linearGradient3599"
       inkscape:collect="always" />
  </defs>
  <sodipodi:namedview
     id="base"
     pagecolor="#ffffff"
     bordercolor="#666666"
     borderopacity="1.0"
     inkscape:pageopacity="0.0"
     inkscape:pageshadow="2"
     inkscape:zoom="8"
     inkscape:cx="28.534441"
     inkscape:cy="18.868026"
     inkscape:document-units="px"
     inkscape:current-layer="layer3"
     showgrid="false"
     inkscape:window-width="1280"
     inkscape:window-height="782"
     inkscape:window-x="0"
     inkscape:window-y="0"
     inkscape:window-maximized="1" />
  <metadata
     id="metadata7">
    <rdf:RDF>
      <cc:Work
         rdf:about="">
        <dc:format>image/svg+xml</dc:format>
        <dc:type
           rdf:resource="http://purl.org/dc/dcmitype/StillImage" />
        <dc:title />
      </cc:Work>
    </rdf:RDF>
  </metadata>
  <g
     inkscape:groupmode="layer"
     id="layer3"
     inkscape:label="Layer3"
     transform="translate(43.491528,-159.77625)">
    <path
       style="fill:#677821;stroke:none"
       d="m -36.778481,195.68513 c -8.235347,3.16428 -10.43171,6.27459 -11.74412,11.84421 l 1.224998,-0.001 17.041638,0.93274 20.170904,1.55208 10.5731073,-0.91154 15.9335217,-0.68118 -1.142342,0.5683 c 1.106914,0.0501 1.453603,-8.33074 -15.09980798,-13.17873 l -0.7459636,-0.32832 -0.26854194,-2.26765 -0.26855738,-0.86545 -2.3572508,0.83551 -1.9096749,0.44758 -0.4177203,1.13408 -2.476619,0.0571 -7.6088451,-0.26807 -15.580302,-1.22759 -5.324424,2.35758 z"
       id="path2826"
       sodipodi:nodetypes="ccccccccccccccccccc" />
  </g>
  <g
     inkscape:groupmode="layer"
     id="layer2"
     inkscape:label="Layer2"
     transform="translate(-239.12743,-596.7053)">
    <path
       style="fill:url(#radialGradient5145);fill-opacity:1;stroke:#000053;stroke-width:0.1205662;stroke-opacity:1"
       d="m 270.74131,631.15976 c -0.25945,-0.18945 -0.71278,-0.1763 -0.95566,-0.0645 -0.26754,0.12015 -0.78163,0.0656 -0.99679,-0.28523 -0.15208,-0.34033 -0.46553,-0.43697 -0.77565,-0.62599 -0.18074,-0.0879 -0.36179,-0.91544 -0.51009,-1.18053 -0.30135,-0.53895 -0.2103,-0.60578 -0.89193,-0.54417 -0.36953,0.0351 -0.69199,0.39965 -0.69199,0.65512 l -0.1494,0.92229 -0.39148,-0.20268 c -0.50488,-0.54428 -0.74278,-0.2738 -1.08374,0.36787 -0.15266,0.2878 -1.13733,-0.38358 -1.32703,-0.7216 0.1525,-3.62049 1.40767,-7.1293 1.83653,-10.73946 0.11303,-0.53067 0.23853,-1.09129 0.3301,-1.2718 -0.56918,-0.92498 -7.32089,-2.07266 -9.58715,-2.41003 -0.92829,-0.13442 -2.16123,-0.43615 -2.55918,-0.51621 l -0.80776,-0.44091 -0.13221,-1.17259 c 0.008,-0.76944 0.39361,-1.90117 0.79148,-3.78252 0.47874,-2.26457 1.08554,-4.56282 1.08722,-4.83083 2.6e-4,-0.0446 0.59253,0.0166 1.03525,0.11117 1.67236,0.35065 9.81707,1.45711 10.88011,1.4858 1.21244,0.0346 1.37926,-0.30148 1.70291,-2.12127 0.12061,-0.68561 0.48496,-2.1842 0.75119,-3.31163 0.26614,-1.12722 0.50449,-2.322 0.58485,-2.69212 l 0.19117,-0.68757 0.784,-0.004 c 2.04742,0.28029 9.09535,1.20041 9.20933,1.43446 0.0483,0.0981 -0.17649,2.93976 -0.55182,5.44103 -0.15979,1.07343 -0.35293,2.20583 -0.35293,2.49826 0,1.143 0.33125,1.01935 7.47522,1.93832 1.92284,0.24742 3.64853,0.60686 3.6754,0.62774 0.0845,0.064 -0.1493,3.21429 -0.59348,5.6887 -0.6348,3.53564 -0.64928,3.66796 -1.28016,3.63036 -0.2949,-0.009 -2.68203,-0.4044 -4.93665,-0.5653 -2.25438,-0.15977 -4.80457,-0.28399 -5.53758,-0.32892 l -0.91129,-0.11048 -0.2603,1.37022 c -0.38398,2.16415 -2.03109,10.46462 -2.27354,11.18375 -0.26932,0.79914 -0.1024,1.18569 -1.17747,1.23841 l -1.60116,0.0185 z"
       id="path5107-5"
       sodipodi:nodetypes="csccsscccscccccccsssssscccsssssssscccscc" />
  </g>
  <g
     inkscape:label="Layer 1"
     inkscape:groupmode="layer"
     id="layer1"
     transform="translate(-239.12743,-596.7053)">
    <path
       style="fill:#000000;fill-rule:evenodd;stroke:#000000;stroke-width:0px;stroke-linecap:butt;stroke-linejoin:miter;stroke-opacity:1"
       d="m 254.16826,635.54174 c 0.19874,-0.27819 0.33813,-0.37767 0.41765,-0.29807 0.0827,0.0825 0.0998,0.27824 0.0571,0.5968 -0.0421,0.31794 0.0563,0.41753 0.29843,0.29809 0.23856,-0.11825 0.45742,-0.27816 0.65639,-0.47731 0.19884,-0.19916 0.25854,-0.1405 0,0.89518 l -0.0565,0.23845 0.35789,-0.17969 c 0.2388,-0.11785 0.43759,-0.25806 0.59673,-0.41744 0.15769,-0.15815 0.35801,-0.25905 0.59683,-0.29869 0.23876,-0.0424 0.4176,0.0999 0.53718,0.41815 0.118,0.31794 0.35803,0.25817 0.71604,-0.17958 l 0.53722,-0.65647 0.23841,-0.057 c 0.15788,-0.0419 0.23879,0.17933 0.23879,0.65646 0,0.47746 0.23882,0.67611 0.71623,0.59677 0.47752,-0.0827 0.73603,0.158 0.77585,0.71594 0.0426,0.55709 0.0426,1.11415 0,1.6712 -0.0415,0.55709 0.0168,0.83533 0.17906,0.83533 0.15802,0 0.29835,-0.11796 0.41778,-0.35784 0.11792,-0.23885 0.15792,-0.19904 0.11792,0.11807 -0.0419,0.31852 0.017,0.47769 0.17951,0.47769 0.15764,0 0.33812,-0.23893 0.53718,-0.71615 0.19881,-0.47736 0.31809,-0.73616 0.35783,-0.77605 0.0423,-0.0414 0,-0.11795 -0.11824,-0.23847 -0.11815,-0.11822 -0.11815,-0.19879 0,-0.23876 0.11824,-0.0425 0.21882,-0.0171 0.29841,0.0576 0.0827,0.0828 0.19914,0.14038 0.35815,0.17847 0.15754,0.0418 0.21869,0.25883 0.17958,0.65643 -0.0423,0.39808 -0.0169,0.55699 0.0562,0.47726 0.0826,-0.0826 0.0998,0.0999 0.0568,0.53746 -0.0423,0.43771 0.0169,0.67608 0.17923,0.7158 0.15777,0.0414 0.23868,-0.0172 0.23868,-0.17884 0,-0.15817 0.1577,-0.17956 0.47739,-0.0569 0.31812,0.11818 0.57681,0.27848 0.77579,0.47726 l 0.29833,0.29857 0.23864,-0.83565 c 0.15756,-0.55683 0.25855,-0.85515 0.29826,-0.89502 0.0417,-0.0421 0.17935,-0.0827 0.41775,-0.11817 0.23873,-0.0422 0.37801,0.0171 0.41784,0.17921 0.33629,2.36155 0.98558,0.77099 1.37251,-0.89535 0.25209,0.2127 0.34854,0.82775 0.47745,1.13375 0.15771,0 0.27834,-0.15761 0.358,-0.47728 0.0826,-0.3182 0.19898,-0.47734 0.35821,-0.47734 0.24806,0.50514 0.2637,1.76174 0.29818,2.08856 0.1182,-0.19876 0.25865,-0.29813 0.41763,-0.29813 l 0.23873,0 c 0.21891,0.0352 0,-0.74196 0,-0.95504 -0.0829,-0.71599 -0.11813,-1.11409 -0.11813,-1.19362 0,-0.0825 0.0566,-0.25842 0.17946,-0.53709 0.11817,-0.27833 0.29846,-0.37773 0.53711,-0.29824 0.23873,0.0827 0.37806,0.14038 0.41789,0.17906 0.0417,0.0417 0.0824,0.14049 0.11791,0.29848 0.0417,0.15804 0.14015,0.23883 0.2984,0.23883 0.15762,0 0.27836,-0.19897 0.35804,-0.59685 0.0829,-0.39791 0.27853,-0.61668 0.5967,-0.65641 0.31842,-0.0413 0.49729,-0.0413 0.53711,0 0.0421,0.0422 0.0825,0.25849 0.11821,0.65641 0.0419,0.39788 0.14049,0.59685 0.29819,0.59685 0.15788,0 0.27853,0.17936 0.35832,0.53709 0.2162,0.34084 0.55727,0.10968 0.89489,0.17925 0.1182,0.31831 0.29854,0.45762 0.53723,0.41779 0.23874,-0.0419 0.4378,-0.0419 0.59674,0 0.15793,0.0422 0.29849,-0.0998 0.41785,-0.41779 0.11784,-0.31828 0.19872,-0.49732 0.23832,-0.53722 0.0417,-0.0413 0.14038,-0.0826 0.29859,-0.11807 0.15758,-0.0418 0.23877,0.0998 0.23877,0.4177 l 0,0.47743 0.29837,-0.11828 c 0.19908,-0.0826 0.35809,-0.21888 0.47733,-0.41775 0.11831,-0.19893 0.25874,-0.31842 0.41792,-0.35813 0.15767,-0.0415 0.1788,0.21876 0.0563,0.77588 -0.11816,0.55697 -0.1578,0.95473 -0.11816,1.19357 0.0417,0.23875 -0.17943,0.37782 -0.65654,0.41765 -0.47739,0.0416 -0.75567,0.0171 -0.83537,-0.0557 -0.51881,-0.47698 -1.28178,-0.0871 -1.7902,-0.11815 -0.15823,0.15785 -0.37823,0.21862 -0.65646,0.17934 -0.49725,-0.35828 -1.02684,-0.15666 -1.55175,-0.23876 -0.0419,-0.0424 -0.0568,-0.41779 -0.0568,-1.13387 0,-0.71609 -0.0419,-1.19342 -0.11821,-1.43227 l -0.11809,-0.35791 -0.11815,0.35791 c -0.0827,0.23885 -0.17871,0.75591 -0.2981,1.55152 -0.11823,0.79573 -0.33848,1.15395 -0.65652,1.07429 -0.49966,0.0996 -0.80759,0.85259 -1.07426,1.13388 -0.23873,-0.11829 -0.37799,-0.19908 -0.41782,-0.23893 -0.0421,-0.0419 -0.19884,0.15817 -0.47746,0.5968 -0.27852,0.4376 -0.53689,0.61665 -0.77582,0.53714 -0.32597,-0.0652 -0.26941,-0.34661 -0.41758,-0.53724 -0.40215,0.20053 -0.95143,0.34596 -1.31294,0.47734 -0.38718,1.549 -1.17883,0.21834 -1.61132,0.29847 -0.23881,-0.0829 -0.43789,-0.0829 -0.5967,0 -0.40281,0.29043 -0.48347,-0.35143 -0.65637,-0.4773 -0.50099,-0.24044 -1.0966,-0.59058 -1.55183,-0.83566 -0.0419,-0.23877 0.042,-0.59681 0.23885,-1.07418 l 0.29811,-0.71609 -0.41759,0.11805 c -0.27852,0.0826 -0.57683,0.358 -0.89519,0.83548 -0.31821,0.47731 -0.59679,0.8753 -0.83546,1.19362 -0.23877,0.31828 -0.43754,0.23869 -0.59672,-0.23857 -0.15798,-0.47767 -0.2786,-0.6764 -0.35834,-0.59679 0.004,0.48952 -0.48437,0.3524 -0.6562,0.47732 -0.27843,-0.0829 -0.49738,-0.2387 -0.65632,-0.47741 -0.15767,-0.23874 -0.25859,-0.0417 -0.2984,0.59687 -0.042,0.63652 -0.15809,0.91494 -0.35804,0.83534 -0.19902,-0.0828 -0.33837,-0.19881 -0.41797,-0.35804 -0.0828,-0.15806 -0.17949,-0.14054 -0.29816,0.0566 -0.11832,0.19905 -0.41797,0.3383 -0.89541,0.41761 -0.47735,0.0825 -0.79566,0.1407 -0.95458,0.17909 -0.24097,-0.25154 -0.5847,-0.29211 -0.95518,-0.47726 -0.47729,-0.0422 -0.83524,-0.0422 -1.07411,0 -0.23879,0.0416 -0.39772,-0.1796 -0.47734,-0.65649 l -0.11808,-0.71622 0.23894,0 c 0.14843,0.2255 0.41915,0.46566 0.53691,0.59669 0.23123,-0.20014 0.61358,-0.78115 0.65653,-0.83546 -0.15916,0.53508 0.53288,0.90579 0.59674,1.01448 0.37913,0.0343 0.37855,-0.37872 0.53714,-0.53722 0.0421,-0.15776 0.14051,-0.23876 0.29838,-0.23876 0.22709,-0.004 0.38607,0.21458 0.53719,0.2985 0.0422,-0.0418 0.11793,-0.25874 0.23823,-0.65644 0.11813,-0.39807 0.29865,-0.59681 0.53739,-0.59681 0.23864,0 0.41779,0.11783 0.53702,0.35795 0.13382,0.0702 0.49264,-0.49248 0.6564,-0.65634 0.23868,0.11824 0.4973,0.35818 0.77564,0.71621 l 0.41789,0.53697 c 0.33805,-0.59483 0.28776,-1.31761 0.41769,-1.96946 0.11816,-0.9945 0.15756,-1.51174 0.11816,-1.55145 -0.12694,0.0878 -0.51306,0.11726 -0.77556,0.17926 -0.23884,-0.0826 -0.37826,-0.14008 -0.41799,-0.17926 0.004,-0.5821 -0.62279,-0.28323 -0.65652,-0.2985 -0.15774,0.23879 -0.39782,0.37803 -0.716,0.41782 -0.31834,0.0413 -0.55704,-0.11817 -0.71608,-0.47764 -0.15784,-0.35793 -0.35829,-0.37784 -0.59676,-0.0577 -0.23884,0.31818 -0.51728,0.55708 -0.83557,0.71621 -0.3183,0.15793 -0.51724,0.19886 -0.59675,0.11797 -0.32032,-0.17376 -0.71684,-0.1181 -1.07416,-0.17923 -0.14699,0.31321 -0.48631,0.36458 -0.71615,0.53692 -0.31822,-0.0829 -0.55692,0.0571 -0.71612,0.41778 -0.15784,0.35793 -0.27859,0.53705 -0.35788,0.53705 -0.0826,0 -0.21894,-0.14027 -0.4179,-0.41766 -0.19876,-0.27858 -0.41772,-0.0998 -0.65639,0.53706 -0.23866,0.63656 -0.378,0.97457 -0.41782,1.01436 -0.0428,0.0422 -0.19883,0.0422 -0.47738,0 -0.27843,-0.0421 -0.45758,-0.14028 -0.53697,-0.29816 -0.0825,-0.15807 -0.1792,-0.13971 -0.29864,0.0566 -0.118,0.19897 -0.3578,0.39756 -0.7159,0.59674 -0.35814,0.19896 -0.59676,0.31798 -0.71624,0.35771 -0.11838,0.0423 -0.25852,0.0423 -0.4179,0 -0.15765,-0.0413 -0.31807,-0.23847 -0.47721,-0.59679 -0.15775,-0.35766 -0.31839,-0.55683 -0.4773,-0.59671 -0.15795,-0.0423 -0.2988,-0.3379 -0.4178,-0.89498 -0.11814,-0.55686 -0.15769,-0.85538 -0.11814,-0.89519 l 0.057,-0.0563 0.29839,0.0563 c 0.19892,0.0415 0.37784,0.21889 0.53709,0.53692 0.15785,0.3185 0.25882,0.23902 0.29837,-0.2385 0.0422,-0.47753 0.14038,-0.71619 0.29838,-0.71619 0.15772,0 0.27842,0.23866 0.35806,0.71619 0.0828,0.47748 0.19891,0.71607 0.35806,0.71607 0.29916,-0.43404 0.86694,-0.95811 1.13387,-1.25318 0.59857,0.0482 1.07915,-0.55959 1.61129,-0.83553 0.23871,-0.0426 0.45773,0.17923 0.65639,0.65645 0.19901,0.4773 0.31835,0.7361 0.3582,0.77589 l 0.0569,0.0567 0.0565,0.0564 c 0.0425,0.0416 0.017,-0.21875 -0.0565,-0.77553 -0.0825,-0.55691 -0.11789,-0.87544 -0.11789,-0.95494 -0.0522,-0.23989 0.25101,-0.20907 0.35788,-0.2983 0.37433,-0.1178 0.43919,-0.55882 0.65641,-0.83571 0.0423,-0.0416 0.25878,-0.0174 0.6565,0.0565 0.39774,0.0826 0.69626,-0.017 0.89518,-0.29821 l 0.001,9.8e-4 z m -3.75948,2.68572 0,0 0,0 z m 21.00589,0.95463 0,0.47788 -0.23857,-0.35844 c -0.15783,-0.23864 -0.23851,-0.47716 -0.23851,-0.71617 0.032,-0.87843 0.32207,0.40341 0.47708,0.59673 z"
       id="path5"
       sodipodi:nodetypes="csssscccssscccsssssssssssssssssssscccsscccscccccsssssssssssccssssscccsssssccccscccsccssccccccccccsssccssssssccscccccccccsscccccccccsssscccsssssssssssssscccsssscccscccscccscccccccccc" />
    <path
       style="fill:#000000;fill-rule:evenodd;stroke:#000000;stroke-width:0px;stroke-linecap:butt;stroke-linejoin:miter;stroke-opacity:1"
       d="m 269.15688,596.9041 c 0,-0.15817 1.10435,-0.11152 2.85477,0.0872 1.75048,0.19915 3.30234,0.41797 4.655,0.65642 1.3525,0.23899 2.20795,0.45743 2.56594,0.65646 0.35825,0.19908 0.69618,0.45747 1.01463,0.77598 0.31812,0.31809 0.51723,0.79572 0.59682,1.43225 0.0827,0.63653 0,1.59138 -0.23873,2.86452 -0.23862,1.27305 -0.39769,2.22787 -0.47737,2.8644 l -0.118,0.95496 0.0563,0.0568 c 0.0431,0.0418 1.53155,0.25844 4.47585,0.65643 2.94404,0.3978 4.57506,0.71609 4.89362,0.95489 0.31801,0.23879 0.57683,0.49714 0.77556,0.77569 0.19895,0.27848 0.37813,0.6167 0.53703,1.01447 0.15781,0.39787 -0.0166,1.9893 -0.53703,4.7742 l -0.77556,4.17754 -0.95512,0.0573 c -0.6366,0.042 -2.62572,0.042 -5.96762,0 l -5.01291,-0.0573 -0.77595,2.74492 c -0.51714,1.83014 -0.81544,2.825 -0.89485,2.98381 -0.0827,0.15838 -0.27876,1.19356 -0.59683,3.10323 -0.31848,1.90972 -0.33835,3.04355 -0.0558,3.40186 0.27861,0.35781 0.61672,0.61665 1.01453,0.77592 0.39776,0.15781 0.61665,0.21844 0.65644,0.17892 0.0419,-0.0428 0.11799,0.0999 0.23885,0.41819 0.1183,0.31791 0.37794,0.43742 0.77577,0.35774 0.39784,-0.0827 0.5967,-0.0426 0.5967,0.11813 0,0.15781 0.0827,0.2386 0.23866,0.2386 0.15775,0 0.17927,-0.11786 0.057,-0.35788 -0.11787,-0.23904 -0.21858,-0.39792 -0.2982,-0.47737 -0.0829,-0.0826 -0.0999,-0.51738 -0.0563,-1.31297 0.0418,-0.79576 -0.0425,-1.15365 -0.23858,-1.0743 l -0.29853,0.11822 -0.0568,0.0567 c -0.042,0.0428 -0.14053,0.0827 -0.29831,0.1182 -0.15781,0.0428 -0.1794,0.25854 -0.0569,0.65635 0.11809,0.3977 0.23871,0.75602 0.35807,1.07412 0.11826,0.31851 0.0826,0.43756 -0.11802,0.35813 -0.19899,-0.0826 -0.3778,-0.23876 -0.5369,-0.47744 -0.15816,-0.23861 -0.29855,-0.33812 -0.41783,-0.29837 -0.11818,0.0424 -0.27858,-0.0423 -0.47753,-0.23891 -0.19883,-0.19892 -0.27833,-0.3978 -0.23871,-0.59676 0.35725,-0.18357 0.66927,-0.62152 0.83533,-0.77589 -0.11821,-0.23853 -0.21865,-0.39763 -0.29824,-0.47734 -0.0823,-0.0827 -0.0999,-0.17926 -0.0561,-0.29818 0.0423,-0.11824 0.21869,-0.14048 0.53713,-0.0575 0.31817,0.0827 0.55689,0.0999 0.71607,0.0575 0.15796,-0.0429 0.23877,-0.14048 0.23877,-0.29851 0,-0.15781 0.0825,-0.23886 0.23866,-0.23886 0.15792,0 0.27845,0.0575 0.35797,0.17928 0.0825,0.11819 0.27864,0.0167 0.59671,-0.29835 0.31844,-0.3183 0.49739,-0.4576 0.53714,-0.41789 0.0416,0.0427 0.0829,0.14038 0.11829,0.29865 0.0423,0.15771 0.23885,0.19907 0.59682,0.11813 0.35789,-0.0829 0.51705,-0.31832 0.47727,-0.71618 -0.0425,-0.39804 0.0999,-0.53697 0.41785,-0.41792 0.31827,0.11816 0.49729,0.19915 0.53705,0.23877 l 0.0573,0.0574 0.0569,0.057 c 0.0417,0.0425 0.21878,0.0826 0.53709,0.11827 0.31825,0.0427 0.43757,0.29839 0.35797,0.77579 -0.0827,0.47744 -0.19901,0.71611 -0.35797,0.71611 -0.15769,0 -0.27851,0.25872 -0.35809,0.77588 l -0.11809,0.77571 0.17931,0.17953 c 0.11836,0.11837 0.19896,0.25857 0.23889,0.41777 0.0428,0.15803 0.14064,0.23882 0.29845,0.23882 0.15811,0 0.29827,-0.15777 0.41775,-0.4774 0.11806,-0.31823 0.15758,0.0827 0.11806,1.19355 l -0.0571,1.67088 -0.41767,0.11812 c -0.27859,0.0829 -0.43772,0.19898 -0.47742,0.35791 -0.043,0.15796 -0.17929,0.29861 -0.41782,0.41787 -0.23878,0.11795 -0.39773,0.21867 -0.47741,0.29828 -0.0829,0.0827 -0.31824,0.11838 -0.71608,0.11838 l -0.59677,0 -0.53718,-0.17933 c -0.35803,-0.11832 -0.63659,-0.41778 -0.83556,-0.89531 -0.19873,-0.47743 -0.41768,-0.73588 -1.73049,-0.9547 -0.47743,-0.0824 -0.75598,-0.11802 -0.83551,-0.11802 -0.0822,0 -0.2785,0.017 -0.59679,0.0569 -0.3183,0.0425 -0.47744,-0.0569 -0.47744,-0.29856 0,-0.23835 0.19905,-0.37786 0.59675,-0.41768 0.39796,-0.042 0.37808,-0.15801 -0.0572,-0.3581 -0.43758,-0.19885 -0.71599,-0.39777 -0.83547,-0.59676 -0.11804,-0.19883 -0.25843,-0.31827 -0.41778,-0.35801 -0.15772,-0.0427 -0.17876,0.25873 -0.057,0.89532 l 0.17945,0.9547 -0.5968,-0.4774 c -0.39773,-0.31834 -0.65646,-0.53701 -0.77569,-0.65646 -0.11804,-0.11833 -0.29837,-0.14053 -0.53725,-0.0561 -0.23868,0.0827 -0.47729,0.14038 -0.71597,0.17936 -0.23886,0.0428 -0.39789,0 -0.4776,-0.11816 -0.2745,-0.15995 -0.6715,0 -1.01429,0 -0.27863,-0.0423 -0.45756,-0.14039 -0.53718,-0.29826 l -0.11817,-0.23883 -0.17928,0.71614 c -0.11814,0.47738 -0.27851,0.75583 -0.47743,0.83532 -0.19878,0.0827 -0.33811,0.19896 -0.41776,0.35826 l -0.11823,0.23868 -0.2982,-0.17924 c -0.19903,-0.11832 -0.37813,-0.0999 -0.53704,0.0567 -0.15815,0.15759 -0.33831,0.21866 -0.53721,0.17933 -0.19901,-0.0421 -0.41778,-0.29845 -0.65635,-0.77579 l -0.35822,-0.71615 c -0.35952,0.27755 -0.12136,0.82096 -0.17933,1.19349 0.0417,0.63652 -0.057,0.95487 -0.29834,0.95487 -0.23861,0 -0.35808,0.0826 -0.35808,0.23875 0,0.15814 -0.1182,0.23889 -0.35807,0.23889 -0.23883,0 -0.41754,-0.11843 -0.53706,-0.35812 -0.11817,-0.23852 -0.25865,-0.47742 -0.41764,-0.71601 l -0.23899,-0.35821 0.1183,0.5968 c 0.0829,0.39778 0.17891,0.75598 0.29825,1.07416 0.11832,0.31836 0.017,0.43781 -0.29825,0.35814 -0.31844,-0.0829 -0.47757,0.0424 -0.47757,0.35798 0,0.31847 -0.0827,0.49732 -0.23844,0.53707 l -0.23901,0.0562 -0.0573,0.0566 c -0.0419,0.0428 -0.0823,0.14054 -0.11812,0.29849 -0.0426,0.15798 -0.15781,0.19886 -0.35807,0.11822 -0.19901,-0.0829 -0.4376,-0.33806 -0.71607,-0.77584 -0.27856,-0.43756 -0.31838,-0.63652 -0.11808,-0.59676 0.19897,0.0423 0.33816,0.14054 0.41771,0.29853 0.0826,0.15742 0.14054,0 0.17911,-0.47744 0.0425,-0.47752 0.17942,-0.71621 0.4177,-0.71621 0.23888,0 0.31821,-0.14051 0.23888,-0.41765 -0.0825,-0.27852 -0.27851,-0.41782 -0.59677,-0.41782 -0.31829,0 -0.63656,-0.0567 -0.95492,-0.17925 -0.43926,0.0204 -0.44201,0.30053 -0.83483,0.44786 -0.61888,-0.47855 -0.51457,0.0601 -1.10096,0.0909 -0.0824,0.0823 -1.02802,0.0999 -1.22707,0.0572 -0.19896,-0.0425 -0.31821,-0.14054 -0.35796,-0.29834 -0.043,-0.15806 -0.19913,-0.27855 -0.47751,-0.35813 -0.27853,-0.0829 -0.47752,-0.25851 -0.59669,-0.53715 -0.11801,-0.27836 -0.0999,-0.43744 0.0568,-0.47724 0.15792,-0.0421 0.29828,0.0573 0.41763,0.29838 0.25206,0.25907 0.65303,-0.51322 0.83561,-0.65659 0.11787,0.11804 0.31814,0.23876 0.59672,0.35808 0.27837,0.11811 0.37794,-0.0168 0.29828,-0.41773 -0.0826,-0.39792 -0.14038,-0.67641 -0.17946,-0.83548 l 0.71625,-0.1169 c 0.67118,-0.46213 0.0524,-0.49263 0.0571,-0.53874 -0.39805,-0.043 -0.63659,-0.11788 -0.7162,-0.23869 -0.0826,-0.1183 -0.19911,-0.14038 -0.35818,-0.057 -0.15788,0.0827 -0.5968,0.19913 -1.31278,0.35827 -0.71611,0.15789 -1.17374,0.25842 -1.37263,0.29825 -0.19907,0.0419 -0.25863,0.21894 -0.17945,0.53707 0.0826,0.31842 0.15758,0.5173 0.23862,0.59681 0.0826,0.0828 0.14038,0.23886 0.17936,0.47753 l 0.0565,0.358 -0.47753,-0.1181 c -0.31829,-0.0829 -0.47747,-0.31822 -0.47747,-0.71603 0,-0.39799 -0.11792,-0.61665 -0.358,-0.65643 -0.23882,-0.0425 -0.37804,-0.0425 -0.41765,0 -0.0422,0.0421 -0.0824,0.14054 -0.11816,0.29823 -0.0421,0.15814 -0.21892,0.17938 -0.53706,0.0561 -0.31843,-0.11792 -0.55683,-0.21868 -0.71617,-0.29838 -0.35049,-0.006 -0.69205,0 -1.07399,0 -0.39808,-0.0826 -1.39264,0.67641 -1.55183,0.83553 l -0.23842,0.23857 c -0.37539,-0.0388 -0.64513,-0.32248 -0.95504,-0.47735 -1.04355,0.10346 -1.57655,1.23965 -2.17603,2.05295 -0.23864,0.0827 -0.39774,0.11837 -0.47733,0.11837 -0.0828,0 -0.25878,-0.0999 -0.53709,-0.29834 -0.36719,-0.30265 -0.48182,0.0355 -0.83558,0.0567 -0.1988,-0.0825 -0.31819,-0.27869 -0.35802,-0.59676 -0.042,-0.31844 0.0573,-0.47758 0.29822,-0.47758 l 0.35827,0 c -0.11395,-0.27157 -0.2793,-0.51879 -0.41773,-0.77565 0.44833,-0.28112 0.36929,-0.90317 0.55456,-1.35668 0.0425,-0.11799 0.2986,-0.0999 0.77588,0.0568 0.4774,0.15799 1.66123,-0.97544 2.69564,-1.05497 1.03448,-0.0829 2.30768,-0.83539 2.38723,-0.83539 0.82592,0.24326 1.66809,0.10092 2.50641,0.11817 0.79557,-0.0827 1.33253,-0.25863 1.61125,-0.53711 0.27844,-0.27849 0.43752,-0.53707 0.47734,-0.77589 l 0.0563,-0.35791 0.47743,0.0567 c 0.31824,0.0429 0.9548,0.0999 1.9097,0.17901 0.95473,0.0826 1.33296,0.12339 1.68472,0.12795 1.14275,-0.19755 1.27868,-1.38205 1.38952,-1.45882 0.12627,-0.28839 0.26968,-0.48996 0.38697,-0.81577 0.10982,-0.30886 0.27848,-0.47739 0.59675,-0.47739 0.31821,0 0.53712,-0.31842 0.65647,-0.95499 0.11798,-0.63659 0.2586,-1.31292 0.89515,-4.1773 0.15786,-0.71627 0.25864,-1.31301 0.29842,-1.79024 l 0.0571,-0.71619 -1.31291,-0.29849 c -0.87517,-0.19883 -1.90941,-0.33811 -3.10317,-0.41781 -1.19365,-0.0826 -1.8302,-0.11813 -1.90948,-0.11813 -0.0827,0 -0.59678,-0.1578 -1.55177,-0.4774 -0.95472,-0.31819 -1.69075,-0.57694 -2.20792,-0.77573 -0.51719,-0.19894 -0.9151,-0.47753 -1.19356,-0.83532 -0.2787,-0.35826 -0.55695,-0.59691 -0.83564,-0.71633 -0.27857,-0.11794 -0.45746,-0.25866 -0.537,-0.41769 -0.0828,-0.15816 -0.0828,-0.55697 0,-1.1935 0.0824,-0.6366 0.39786,-2.10862 0.95479,-4.41622 0.55687,-2.30744 1.0658,-4.06302 1.22503,-4.30162 0.15763,-0.23856 0.0491,0.40271 -0.0339,0.95974 l -0.11802,0.83551 -0.71598,3.34187 c -0.47753,2.22795 -0.69626,3.58072 -0.6565,4.05808 l 0.0572,0.71614 0.71612,0.1792 c 0.4774,0.11824 1.6312,0.2985 3.46132,0.53718 1.83004,0.2384 3.14297,0.43774 3.93872,0.59674 0.79569,0.15778 1.79035,0.31813 2.98386,0.4775 1.19349,0.15797 1.81017,0.25846 1.84997,0.29831 l 0.0566,0.0567 0.11812,0.47729 c 0.0826,0.31841 0.0826,0.51719 0,0.59678 -0.0824,0.0826 -0.15795,0.23895 -0.23878,0.47745 -0.0828,0.23877 -0.1988,0.79566 -0.35785,1.67105 -0.15799,0.87512 -0.27873,1.39239 -0.35816,1.55148 -0.0825,0.1581 -0.31832,1.35273 -0.71607,3.58064 -0.39797,2.22806 -0.55703,3.62053 -0.47756,4.1775 0.0826,0.55695 0.17928,0.89513 0.29855,1.01455 l 0.65657,0.0563 c -0.35047,-0.48154 0.37709,-0.75453 0.41752,-0.83551 0.33949,0.11904 0.526,0.4046 0.77594,0.59689 0.15778,0 0.19903,-0.23884 0.11796,-0.71613 -0.0823,-0.47747 0.0421,-0.73603 0.35811,-0.77581 l 1.0145,0 c 0.35827,0.0422 0.61663,0.25862 0.77584,0.65644 0.15786,0.39782 0.29841,0.61664 0.4176,0.65648 0.55667,-0.0951 0.5885,0.63024 0.83557,0.89511 0.0418,0.15803 0.14009,0.23888 0.29826,0.23888 0.15804,0 0.27857,-0.0571 0.35807,-0.17885 0.0827,-0.118 0.23892,-0.0578 0.47739,0.17885 0.23906,0.23879 0.39788,0.31829 0.47732,0.23879 0.0829,-0.0827 0.47772,-0.0999 1.19366,-0.0565 0.71606,0.0424 1.17375,-0.41773 1.37251,-1.37262 0.19915,-0.95483 0.33843,-1.55159 0.41792,-1.79033 0.0827,-0.23879 0.19879,-0.79565 0.35807,-1.67093 0.15754,-0.87527 0.35786,-1.79033 0.59677,-2.74516 0.23863,-0.95488 0.49716,-2.20808 0.77579,-3.75964 l 0.41769,-2.32734 2.14843,0.11799 c 1.43206,0.0826 3.42141,0.21883 5.9678,0.41783 l 3.81922,0.29839 0.2983,-1.43231 c 0.19914,-0.95476 0.41789,-2.18812 0.6564,-3.69997 0.23883,-1.51176 0.37814,-2.50645 0.41788,-2.98387 l 0.0565,-0.71615 -2.26774,-0.29832 c -1.51175,-0.19904 -3.18274,-0.41773 -5.01288,-0.65645 -1.83008,-0.23893 -2.92406,-0.45746 -3.28219,-0.65652 -0.35813,-0.19896 -0.57682,-0.37788 -0.65646,-0.53697 -0.0829,-0.15816 -0.0829,-0.51722 0,-1.07424 0.0823,-0.5571 0.23856,-1.63125 0.47745,-3.22244 0.23851,-1.59158 0.37791,-2.66575 0.41768,-3.22277 l 0.0561,-0.83552 -3.34203,-0.5371 c -2.22785,-0.35788 -3.81933,-0.59676 -4.77407,-0.71612 l -1.66682,-0.21631 0.003,-0.22792 0,0 -9.4e-4,5.6e-4 z m 10.43396,34.04269 c 0.27824,-0.0825 0.45734,-0.0825 0.53702,0 0.0826,0.0828 0.11804,0.23867 0.11804,0.47751 l 0,0.3578 -0.0566,-0.0575 c -0.0422,-0.0415 -0.21877,-0.0828 -0.53693,-0.11838 -0.31846,-0.0426 -0.47756,-0.14022 -0.47756,-0.29832 0,-0.15803 0.14014,-0.2785 0.41775,-0.35812 l 2e-5,-5e-5 z m 1.85001,-1.07453 c 0.15778,-0.47715 0.199,-0.11787 0.11804,1.07453 -0.0827,1.1936 -0.14038,1.81024 -0.17919,1.85003 -0.0428,0.0423 -0.29859,0.0169 -0.77593,-0.0571 -0.47728,-0.0827 -0.75598,-0.15799 -0.83562,-0.23886 -0.0824,-0.0829 0.14011,-0.17949 0.65646,-0.29831 0.51733,-0.11833 0.73612,-0.21893 0.6565,-0.29848 -0.0823,-0.0826 -0.1179,-0.23875 -0.1179,-0.47732 l 0,-0.35808 0.1179,-0.23858 c 0.0825,-0.15797 0.19918,-0.47745 0.35821,-0.95485 l -7e-5,-4e-5 z m -1.49214,0.47765 c -0.0422,-0.15807 0.0171,-0.21868 0.17932,-0.17911 l 0.23875,0.0571 -0.17932,0.17913 c -0.11807,0.1181 -0.19919,0.0999 -0.23877,-0.0573 z m 2.08889,3.1033 c 0.0826,-0.47769 0.15748,-0.6365 0.23885,-0.47769 0.0816,0.15829 0.11794,0.39828 0.11794,0.71631 l 0,0.4771 -0.17911,-0.0561 c -0.11819,-0.0426 -0.19881,-0.0426 -0.23844,0 -0.0419,0.0428 -0.0168,-0.1787 0.0566,-0.65649 l -2.3e-4,-2e-5 z"
       id="path11"
       sodipodi:nodetypes="csssssscccssssccccccsssssssssssscccsssssssccssssssssssssscccssscccssscccssscccssssssssscccssscccccscccsscccsssscccssscccssssssssscccsssssccsscccsssssscccsssssccccccsccsccccssccscccsccsssscccssssssssssccccccssscccssssssccccsccsccsssssssssccccccscccssssscccccccccccsscccscsssccccccccccccccscccscc" />
    <path
       style="fill:#000000;fill-rule:evenodd;stroke:#000000;stroke-width:0px;stroke-linecap:butt;stroke-linejoin:miter;stroke-opacity:1"
       d="m 268.98309,596.98933 c 0.15788,-0.0428 0.22964,0.11165 0.18983,0.35151 l -0.1463,0.54472 -0.47741,2.14832 c -0.3183,1.43236 -0.74585,2.80448 -0.89515,4.1775 -0.15326,1.41493 -0.80303,2.07499 -2.20811,1.84997 -1.18438,-0.18985 -3.14307,-0.3781 -5.84836,-0.77584 l -4.0581,-0.59678 -0.47737,-0.11811 c -0.31827,-0.0825 -1.51312,-0.27965 -1.354,-0.35922 0.15798,-0.0827 1.87118,0.0443 2.90561,0.11883 1.03436,0.0827 3.0236,0.3382 5.96764,0.77592 l 3.99428,0.41519 0.60101,-1.42977 c 0.11793,-1.11404 0.39773,-2.52633 0.8354,-4.23707 0.43766,-1.71081 0.8106,-2.82574 0.96985,-2.86552 z"
       id="path13"
       sodipodi:nodetypes="ccccsscccsscccsc" />
    <path
       style="fill:#000000;fill-rule:evenodd;stroke:#000000;stroke-width:0px;stroke-linecap:butt;stroke-linejoin:miter;stroke-opacity:1"
       d="m 282.75367,636.37749 q 0.47743,-0.0574 0.47743,0.41749 0,0.4772 -0.23882,0.4772 -0.23834,0 -0.35782,-0.17862 -0.11806,-0.1796 -0.17938,-0.11834 -0.0576,0.0571 -0.11811,0.53712 -0.0567,0.47709 -0.53731,0.65629 -0.47738,0.17981 -0.59676,0.29876 -0.11827,0.11807 -0.35795,0.17876 -0.23867,0.0568 -0.4176,0.41823 -0.17952,0.35782 -0.29858,0.47741 -0.1181,0.11812 0,0.23852 0.11816,0.11787 0.17963,0.0564 0.0572,-0.0564 0.29823,-0.11821 0.23862,-0.0557 0.23862,0.41802 0,0.47734 -0.77586,0.47734 -0.77567,0 -0.89497,-0.11844 -0.11816,-0.11787 -0.11816,-0.47744 l 0,-0.35767 0.23889,-0.35851 q 0.23852,-0.35752 0.29832,-0.71609 0.0565,-0.35788 0.2985,-0.35788 0.23866,0 0.35797,0.17968 0.11832,0.17934 0.17942,0 0.0571,-0.17968 0.17948,-1.01483 0.11803,-0.83515 0.47728,-0.47739 0.35812,0.3584 0.47745,0.11814 l 0.1181,-0.23908 0.29819,-0.17947 q 0.29855,-0.17868 0.77583,-0.23839 z"
       id="path15" />
  </g>
</svg>
