<?xml version="1.0" encoding="UTF-8" standalone="no"?>
<!-- Created with Inkscape (http://www.inkscape.org/) -->

<svg
   xmlns:dc="http://purl.org/dc/elements/1.1/"
   xmlns:cc="http://creativecommons.org/ns#"
   xmlns:rdf="http://www.w3.org/1999/02/22-rdf-syntax-ns#"
   xmlns:svg="http://www.w3.org/2000/svg"
   xmlns="http://www.w3.org/2000/svg"
   xmlns:sodipodi="http://sodipodi.sourceforge.net/DTD/sodipodi-0.dtd"
   xmlns:inkscape="http://www.inkscape.org/namespaces/inkscape"
   width="49.912125"
   height="26.236763"
   id="svg3108"
   version="1.1"
   inkscape:version="0.47 r22583"
   sodipodi:docname="ice2.svg">
  <defs
     id="defs3110">
    <inkscape:perspective
       sodipodi:type="inkscape:persp3d"
       inkscape:vp_x="0 : 526.18109 : 1"
       inkscape:vp_y="0 : 1000 : 0"
       inkscape:vp_z="744.09448 : 526.18109 : 1"
       inkscape:persp3d-origin="372.04724 : 350.78739 : 1"
       id="perspective3116" />
    <inkscape:perspective
       id="perspective3101"
       inkscape:persp3d-origin="0.5 : 0.33333333 : 1"
       inkscape:vp_z="1 : 0.5 : 1"
       inkscape:vp_y="0 : 1000 : 0"
       inkscape:vp_x="0 : 0.5 : 1"
       sodipodi:type="inkscape:persp3d" />
  </defs>
  <sodipodi:namedview
     id="base"
     pagecolor="#ffffff"
     bordercolor="#666666"
     borderopacity="1.0"
     inkscape:pageopacity="0.0"
     inkscape:pageshadow="2"
     inkscape:zoom="0.98994949"
     inkscape:cx="-150.46917"
     inkscape:cy="-38.298565"
     inkscape:document-units="px"
     inkscape:current-layer="layer1"
     showgrid="false"
     inkscape:window-width="789"
     inkscape:window-height="561"
     inkscape:window-x="268"
     inkscape:window-y="59"
     inkscape:window-maximized="0" />
  <metadata
     id="metadata3113">
    <rdf:RDF>
      <cc:Work
         rdf:about="">
        <dc:format>image/svg+xml</dc:format>
        <dc:type
           rdf:resource="http://purl.org/dc/dcmitype/StillImage" />
        <dc:title />
      </cc:Work>
    </rdf:RDF>
  </metadata>
  <g
     inkscape:label="Layer 1"
     inkscape:groupmode="layer"
     id="layer1"
     transform="translate(-416.95746,-484.0701)">
    <g
       transform="matrix(0.10334729,-0.04497643,0.04497643,0.10334729,362.76585,480.91085)"
       id="g3536">
      <path
         d="m 425.76318,363.63666 c 13.16708,-1.06385 27.73076,3.65771 43.69107,14.16469 8.77799,5.71923 21.01415,16.15985 36.70851,31.32192 15.42801,14.63029 27.79717,24.87142 37.10747,30.72341 8.77792,7.31516 14.62999,10.97272 17.55623,10.97264 4.25585,8e-5 6.25088,-2.19445 5.98509,-6.58359 -4.25627,-3.59096 -6.3843,-7.581 -6.38408,-11.97015 -2.2e-4,-3.45795 1.1968,-6.45049 3.59104,-8.97762 2.39381,-2.65993 5.31985,-3.98995 8.77811,-3.99006 3.32482,1.1e-4 6.31737,1.59612 8.97762,4.78806 1.1968,1.46313 2.3273,3.92366 3.39155,7.38161 6.91586,-0.53192 10.83941,-0.79793 11.77066,-0.79801 3.4578,-7.58101 7.97984,-11.37155 13.56617,-11.37166 1.06376,1.1e-4 2.39377,0.1996 3.99006,0.59851 5.1868,1.33012 7.78034,4.52216 7.7806,9.57613 -2.6e-4,6.51717 -2.5938,11.43824 -7.7806,14.76319 l 3.39155,5.78558 c 12.63488,-3.05897 27.39806,-11.90357 44.28958,-26.53386 l 42.89307,-36.90798 c 17.42285,-12.36902 34.71307,-18.55359 51.87069,-18.55374 9.17669,1.5e-4 18.5533,1.59617 28.12987,4.78806 24.73787,8.24625 39.50104,20.28289 44.28958,36.10998 -11.17262,-0.9309 -19.81773,-0.13289 -25.93534,2.39403 -18.75369,7.7142 -29.12781,23.6744 -31.12243,47.88063 -4.65547,-2.92598 -7.51501,-4.655 -8.57861,-5.18706 -3.19244,-1.86196 -6.18499,-3.19197 -8.97761,-3.99006 -5.85247,-1.72894 -11.43854,-2.59346 -16.75821,-2.59354 -11.17253,8e-5 -21.01466,3.19212 -29.52639,9.57613 -8.51247,6.38415 -14.03203,14.96275 -16.55873,25.73585 -0.39935,1.59605 -0.99786,3.85708 -1.79552,6.7831 -8.91144,-7.04907 -18.42107,-10.57361 -28.52888,-10.57366 -6.11838,5e-5 -11.70445,1.52956 -16.75822,4.58856 -9.97541,6.11813 -14.96298,16.35925 -14.96269,30.72341 -2.9e-4,2.92605 0.19921,5.85209 0.59851,8.77812 -1.0643,-6.38407 -3.39184,-11.57113 -6.9826,-15.5612 -3.99032,-4.52204 -9.04438,-6.78307 -15.1622,-6.7831 -6.38434,3e-5 -12.43591,2.66006 -18.15475,7.98012 -5.0543,-6.11807 -11.77088,-9.17711 -20.14975,-9.17713 -9.31034,2e-5 -15.42842,4.18958 -18.35426,12.56868 -1.19721,3.32505 -2.32772,6.98258 -3.39153,10.97263 0.66481,-4.65505 0.9973,-9.0441 0.99751,-13.16718 -2.1e-4,-15.82717 -5.05426,-26.26781 -15.16221,-31.32191 -5.05423,-2.52699 -10.3743,-3.7905 -15.9602,-3.79054 -11.03931,4e-5 -21.14742,4.3226 -30.32439,12.96766 -1.72918,-12.23611 -7.44824,-22.47725 -17.15725,-30.72341 -9.57624,-8.24603 -20.54888,-12.36909 -32.91794,-12.36915 -11.43822,6e-5 -21.61285,4.05662 -30.52389,12.16965 -7e-5,-15.96013 -3.92362,-28.92778 -11.77066,-38.90302 -8.51216,-11.03902 -20.5488,-16.55859 -36.10999,-16.55871 -3.19205,1.2e-4 -6.51708,0.26613 -9.97513,0.79801 27.53134,-23.80717 53.00115,-36.64183 76.40952,-38.50402"
         id="text1307"
         style="font-size:147.61300659px;font-style:normal;font-weight:normal;line-height:125%;fill:#000000;fill-opacity:1;stroke:none;font-family:Bitstream Vera Sans" />
      <path
         d="m 428.26159,363.51461 c -0.83385,0.0213 -1.67706,0.0585 -2.5,0.125 -23.40837,1.86219 -48.87491,14.69283 -76.40625,38.5 28.35606,-5.17232 41.71461,-23.40192 75,-28.59375 13.16709,-1.06386 27.72719,3.64927 43.6875,14.15625 8.778,5.71924 21.02439,16.15043 36.71875,31.3125 15.428,14.63029 27.78345,24.86676 37.09375,30.71875 8.77793,7.31515 14.63626,11.00008 17.5625,11 4.25588,9e-5 6.23454,-2.20461 5.96875,-6.59375 -1.29417,-1.09188 -2.34936,-2.24058 -3.25,-3.40625 -0.40892,0.0518 -0.85023,0.0938 -1.3125,0.0937 -2.92624,8e-5 -8.78458,-3.65358 -17.5625,-10.96875 -9.3103,-5.85199 -21.66575,-16.11972 -37.09375,-30.75 -15.69436,-15.16207 -27.94076,-25.59327 -36.71875,-31.3125 -14.96279,-9.85029 -28.6797,-14.60062 -41.1875,-14.28125 z m 328.6875,4.5 c -17.15762,1.5e-4 -34.45216,6.19349 -51.875,18.5625 l -42.90625,36.90625 c -16.89152,14.63029 -31.64635,23.47227 -44.28125,26.53125 l -0.125,-0.21875 c -1.20873,1.66577 -2.76973,3.11438 -4.6875,4.34375 l 3.40625,5.78125 c 12.63487,-3.05897 27.38973,-11.90096 44.28125,-26.53125 l 42.90625,-36.90625 c 17.42288,-12.36903 34.68613,-18.56235 51.84375,-18.5625 9.17668,1.5e-4 18.57968,1.58936 28.15625,4.78125 18.0937,-0.54197 32.07594,25.19405 45.6875,26.21875 -4.78854,-15.82709 -19.54338,-27.84751 -44.28125,-36.09375 -9.57657,-3.19189 -18.94829,-4.81234 -28.125,-4.8125 z m -184.15625,51.28125 c -3.45826,1.1e-4 -6.38742,1.34007 -8.78125,4 -2.39424,2.52713 -3.59398,5.51079 -3.59375,8.96875 -6e-5,1.10746 0.13532,2.19336 0.40625,3.25 1.8875,-10.4296 4.86685,-12.22212 10.8125,-14.5625 4.57479,-0.49988 7.3085,2.08931 9.96875,6.28125 1.19679,1.46314 4.092,10.91705 5.65625,14.125 6.91586,-0.53192 5.56875,0.96883 7,-0.28125 3.45783,-7.58101 6.54112,-16.67697 11.5625,-19.125 13.41405,-2.92708 15.28983,2.12592 14.875,15.375 1.05819,-2.29237 1.56237,-4.90016 1.5625,-7.84375 -2.6e-4,-5.05397 -2.59444,-8.26364 -7.78125,-9.59375 -1.59629,-0.39891 -2.90499,-0.59364 -3.96875,-0.59375 -5.58633,1.1e-4 -10.10471,3.794 -13.5625,11.375 -0.93125,8e-5 -4.86536,0.24932 -11.78125,0.78125 -1.06425,-3.45795 -2.20943,-5.91187 -3.40625,-7.375 -2.66025,-3.19194 -5.64393,-4.78114 -8.96875,-4.78125 z m 199.53125,39.71875 c -0.0129,0.0634 -0.0497,0.12393 -0.0625,0.1875 0.009,0.006 0.0219,-0.006 0.0312,0 0.005,-0.0635 0.0259,-0.12415 0.0312,-0.1875 z m -142.40625,52.78125 c -0.43701,1.63503 -0.75567,3.36195 -1,5.15625 0.65435,1.89456 1.16923,3.9222 1.53125,6.09375 -0.3993,-2.92603 -0.59401,-5.8552 -0.59375,-8.78125 -2e-5,-0.83442 0.0289,-1.66215 0.0625,-2.46875 z"
         id="path3523"
         style="font-size:147.61300659px;font-style:normal;font-weight:normal;line-height:125%;fill:#373e48;fill-opacity:1;stroke:none;font-family:Bitstream Vera Sans" />
    </g>
  </g>
</svg>
