<?xml version="1.0" encoding="UTF-8" standalone="no"?>
<!-- Generator: Adobe Illustrator 12.0.0, SVG Export Plug-In . SVG Version: 6.00 Build 51448)  -->

<svg
   xmlns:dc="http://purl.org/dc/elements/1.1/"
   xmlns:cc="http://creativecommons.org/ns#"
   xmlns:rdf="http://www.w3.org/1999/02/22-rdf-syntax-ns#"
   xmlns:svg="http://www.w3.org/2000/svg"
   xmlns="http://www.w3.org/2000/svg"
   xmlns:sodipodi="http://sodipodi.sourceforge.net/DTD/sodipodi-0.dtd"
   xmlns:inkscape="http://www.inkscape.org/namespaces/inkscape"
   height="50"
   id="Layer_1"
   inkscape:version="0.47 r22583"
   sodipodi:docname="igloo.svg"
   sodipodi:version="0.32"
   space="preserve"
   style="overflow:visible"
   version="1.1"
   viewBox="0 0 127.9409 50"
   width="127.9409">
  <metadata
     id="metadata3">
    <rdf:RDF>
      <cc:Work
         rdf:about="">
        <dc:title>Various Cliparts</dc:title>
        <dc:description />
        <dc:subject>
          <rdf:Bag>
            <rdf:li />
          </rdf:Bag>
        </dc:subject>
        <dc:publisher>
          <cc:Agent
             rdf:about="http://www.openclipart.org/">
            <dc:title />
          </cc:Agent>
        </dc:publisher>
        <dc:creator>
          <cc:Agent>
            <dc:title>Architetto Francesco Rollandin</dc:title>
          </cc:Agent>
        </dc:creator>
        <dc:rights>
          <cc:Agent>
            <dc:title>Architetto Francesco Rollandin</dc:title>
          </cc:Agent>
        </dc:rights>
        <dc:date />
        <dc:format>image/svg+xml</dc:format>
        <dc:type
           rdf:resource="http://purl.org/dc/dcmitype/StillImage" />
        <cc:license
           rdf:resource="http://web.resource.org/cc/PublicDomain" />
        <dc:language>en</dc:language>
      </cc:Work>
      <cc:License
         rdf:about="http://web.resource.org/cc/PublicDomain">
        <cc:permits
           rdf:resource="http://web.resource.org/cc/Reproduction" />
        <cc:permits
           rdf:resource="http://web.resource.org/cc/Distribution" />
        <cc:permits
           rdf:resource="http://web.resource.org/cc/DerivativeWorks" />
      </cc:License>
    </rdf:RDF>
  </metadata>
  <defs
     id="defs284">
    <inkscape:perspective
       sodipodi:type="inkscape:persp3d"
       inkscape:vp_x="0 : 79.755501 : 1"
       inkscape:vp_y="0 : 1000 : 0"
       inkscape:vp_z="408.159 : 79.755501 : 1"
       inkscape:persp3d-origin="204.0795 : 53.170334 : 1"
       id="perspective147" />
  </defs>
  <sodipodi:namedview
     bordercolor="#666666"
     borderopacity="1.0"
     id="base"
     inkscape:current-layer="Layer_1"
     inkscape:cx="204.07962"
     inkscape:cy="79.755498"
     inkscape:pageopacity="0.0"
     inkscape:pageshadow="2"
     inkscape:window-height="712"
     inkscape:window-width="1024"
     inkscape:window-x="0"
     inkscape:window-y="35"
     inkscape:zoom="1.7517683"
     pagecolor="#ffffff"
     showgrid="false"
     inkscape:window-maximized="0" />
  <g
     id="g3"
     transform="matrix(0.31345875,0,0,0.31345875,3.8740287e-5,-1.19516e-4)">
    <path
       d="m 269.015,22.152 c 10.618,8.641 21.67,16.78 30.762,27.113 4.279,4.863 8.463,15.61 13.594,19.388 15.832,11.66 54.516,-10.223 65.103,19.174 -3.261,-3.27 -14.674,-16.376 -20.891,-14.596 -5.809,1.664 -3.165,13.217 -5.579,18.745 0.981,-16.436 4.362,-17.795 -9.731,-19.888 -2.252,-0.334 -7.594,3.227 -9.729,4.72 0.505,-0.762 1.139,-1.66 2.29,-3.004 -34.599,3.595 -91.149,-2.67 -99.873,41.924 13.336,-1.233 78.909,-0.104 78.982,-15.453 -0.471,4.173 7.181,15.757 13.45,13.735 4.512,-1.454 6.292,-14.293 11.303,-17.886 17.772,-12.742 33.522,3.645 32.193,21.606 24.435,-0.611 4.943,-18.325 12.448,-21.318 2.469,-0.984 7.75,33.983 8.014,34.911 2.668,9.374 9.049,17.86 16.023,24.18 2.794,2.531 -2.635,3.823 -4.435,-3.433 -8.153,16.338 -5.088,-3.695 -10.731,-5.438 -10.179,-3.143 -14.666,11.652 -26.757,8.585 4.751,-3.404 6.068,-20.605 -0.715,-14.881 -2.913,-1.07 -4.205,-0.939 -7.87,-0.573 3.333,0.485 6.209,1.506 10.016,1.289 0,0.19 0,0.382 0,0.572 -4.338,-0.372 -10.069,0.313 -13.163,1.86 3.828,0.05 7.188,1.003 11.446,1.002 -3.143,0.321 -5.932,1.609 -8.012,2.146 2.4,0.061 5.837,0.798 7.583,1.001 -3.711,0.518 -4.863,1.838 -7.583,3.006 2.587,0.172 7.269,1.08 8.585,1.144 -4.839,-0.621 -9.735,-0.192 -14.309,1.289 2.856,0.26 6.892,1.257 9.158,1.431 -12.682,-1.145 -18.132,4.282 -27.759,3.435 -5.893,-0.519 -11.963,-7.166 -18.887,-1.004 3.298,-5.657 9.399,-6.432 14.451,-2.146 3.956,-18.463 5.475,-41.22 -15.023,-45.214 -12.491,-2.434 -32.758,-0.856 -37.774,10.874 -2.733,6.392 -2.268,25.091 0.858,28.904 -0.038,-0.004 -0.574,0.565 -0.571,0.571 -0.968,-0.302 -4.752,-2.229 -5.724,-2.861 -0.22,0.113 3.141,-2.447 2.861,-1.145 0.334,-6.757 2.003,-14.792 1.145,-21.463 -2.313,-17.976 -10.932,-10.48 -29.862,-8.337 -14.39,1.63 -9.625,10.916 -12.775,20.213 -1.92,-20.173 -7.489,-17.951 -29.046,-18.314 -12.405,-0.209 -51.24,-5.434 -60.238,2.289 -4.377,3.757 -3.474,9.483 -3.792,14.81 -0.879,14.757 -0.311,10.614 9.229,12.519 6.668,1.331 13.955,-3.252 20.031,2.434 4.27,-5.915 11.582,-5.088 17.17,-3.864 -0.144,1.126 -0.457,3.576 -0.715,4.437 -5.52,-5.322 -15.409,-4.083 -14.737,4.578 -3.001,-5.503 -14.322,-10.675 -16.168,-0.43 -0.906,0 -1.813,0 -2.719,0 0.047,-7.895 -7.965,-5.702 -11.731,-0.285 1.409,-13.159 -9.318,-2.654 -14.595,-1.002 -2.42,0.758 -5.903,0.005 -11.446,1.287 -2.619,-7.604 -12.178,-5.303 -12.735,1.431 -1.888,-4.678 -6.905,-6.965 -11.733,-5.579 9.153,-5.752 24.295,-0.574 34.34,1.431 1.992,-3.674 4.463,-4.083 7.584,-6.439 5.457,-4.119 6.369,2.92 6.915,-6.428 0.182,-3.11 2.687,-14.228 0.668,-16.751 -5.63,-7.04 -30.217,-1.173 -39.634,-0.285 -10.966,1.034 -48.278,-0.035 -38.204,20.031 -0.158,-0.315 -0.434,3.374 -0.429,3.72 7.401,-5.087 8.476,1.632 14.022,2.004 5.185,0.348 8.956,-5.922 13.021,0 -5.738,-2.615 -11.107,-0.332 -13.593,4.435 -1.704,-8.102 -11.432,-7.421 -16.598,-1.717 2.359,-6.234 0.689,-10.774 -6.295,-9.872 0.68,-5.991 -1.825,-6.699 -7.154,-4.865 10.28,-16.229 -18.525,-14.506 -13.307,0.715 -5.456,-1.413 -8.123,1.248 -7.297,6.868 -4.84,0.158 -9.134,3.033 -10.588,8.298 1.53,0.909 1.248,0.579 2.432,1.718 -0.033,0.009 -0.503,0.196 -0.429,0.286 -1.369,0.295 -1.208,-0.757 -1.717,-1.717 -10.718,6.56 12.19,-20.563 15.167,-24.324 1.479,-1.869 6.493,-4.033 7.297,-5.579 3.387,-6.51 4.124,-17.367 6.09,-25.68 C 44.85,78.494 55.873,60.786 67.984,47.051 119.906,-11.833 204.023,-9.776 269.015,22.152"
       id="path5" />
    <path
       d="M 235.248,9.275 C 197.08,8.618 158.904,9.742 120.926,13.711 157.301,-1.396 197.74,-1.74 235.248,9.275"
       id="path7"
       style="fill:#ffffff" />
    <path
       d="m 235.676,11.993 c 3.352,8.723 2.255,18.969 5.008,26.899 1.23,-4.178 -3.319,-25.31 -1.86,-26.612 8.934,-7.977 47.404,26.512 54.229,33.051 -63.343,-7.482 -126.325,-5.697 -189.584,1.717 1.572,-10.382 5.022,-21.106 11.303,-29.618 -12.243,5.56 -6.808,29.421 -20.174,30.906 -9.871,1.096 -19.475,1.769 -27.615,4.865 C 86.984,27.75 110.86,16.349 142.102,13.711 151.175,12.944 169,7.043 169,18.289 c 0,6.828 -1.409,14.442 0.429,20.461 2.178,-7.512 1.448,-17.075 1.678,-25.33 0.076,-2.753 16.066,-2.083 19.356,-2.142 15.072,-0.268 30.157,0.084 45.213,0.715"
       id="path9"
       style="fill:#ffffff" />
    <path
       d="m 207.204,42.327 c 3.51,4.371 6.345,25.276 2.718,30.762 -3.856,5.833 -62.813,11.58 -69.68,6.581 -5.901,-4.296 -5.689,-26.566 0,-32.622 9.804,-10.436 52.487,-4.252 66.962,-4.721"
       id="path11"
       style="fill:#ffffff" />
    <path
       d="m 271.162,45.761 c 1.261,4.164 2.006,26.401 4.006,27.758 1.96,1.331 -0.606,-24.034 -1.717,-27.615 21.891,0.241 29.379,9.076 39.49,27.9 -23.044,2.771 -44.244,5.013 -67.034,4.364 -8.042,-0.229 -29.518,3.058 -33.981,-2.933 -1.879,-2.522 -0.878,-28.998 1.216,-31.191 7.402,-7.755 48.1,0.002 58.02,1.717"
       id="path13"
       style="fill:#ffffff" />
    <path
       d="m 137.093,47.048 c -1.604,18.627 2.115,31.91 -18.314,34.483 -6.987,0.88 -50.619,8.528 -49.936,1.36 0.59,-6.191 0.452,-14.013 2.862,-19.817 5.553,-13.376 14.259,-11.119 29.332,-13.307 10.344,-1.502 25.922,-7.018 36.056,-2.719"
       id="path15"
       style="fill:#ffffff" />
    <path
       d="M 71.418,54.489 C 70.336,60.875 70.105,80.471 66.41,85.109 61.933,90.729 52.217,90.164 45.806,91.69 48.927,80.117 58.248,55.254 71.418,54.489"
       id="path17"
       style="fill:#ffffff" />
    <path
       d="m 328.679,79.67 c -4.586,4.254 -8.555,10.376 -12.733,13.308 2.647,-5.933 7.329,-11.919 12.733,-13.308"
       id="path19" />
    <path
       d="m 259,80.816 c -10.363,5.856 -18.308,14.721 -23.322,25.469 -3.321,7.115 -0.807,11.193 -9.372,11.086 -13.713,-0.172 -27.425,-0.344 -41.138,-0.516 -19.375,-0.243 -9.841,-17.789 -13.019,-31.461 0,-0.002 -0.423,0.013 -0.429,0 -0.724,6.453 2.037,19.671 -0.859,25.183 -6.029,11.476 -37.6,7.349 -51.366,8.441 -31.414,2.493 -20.285,-4.795 -21.893,-30.763 -4.768,12.41 3.722,31.291 -12.59,33.84 -13.996,2.188 -34.785,8.275 -44.069,-0.216 -1.659,-23.737 4.722,-28.468 27.257,-32.335 21.375,-3.668 38.005,-5.25 59.165,-7.012 43.5,-3.624 86.004,-2.81 131.635,-1.716"
       id="path21"
       style="fill:#ffffff" />
    <path
       d="m 381.191,90.259 c -1.391,0.434 -0.506,2.747 -2.575,1.288 0.305,-3.146 1.396,-0.921 2.575,-1.288"
       id="path23" />
    <path
       d="m 352.289,95.124 c -0.782,1.914 1.595,3.838 -2.575,3.434 -0.952,-4.457 2.105,-2.284 2.575,-3.434"
       id="path25"
       style="fill:#ffffff" />
    <path
       d="m 355.865,95.124 c -1.242,1.08 -2.321,2.017 0,0"
       id="path27"
       style="fill:#ffffff" />
    <path
       d="m 347.567,95.409 c -1.947,1.912 -1.813,1.779 0,0"
       id="path29"
       style="fill:#ffffff" />
    <path
       d="m 360.015,97.986 c -0.975,-0.817 -3.142,3.189 -2.146,-2.577 2.488,0.339 1.291,1.859 2.146,2.577"
       id="path31"
       style="fill:#ffffff" />
    <path
       d="m 363.735,97.986 c -3.105,-1.217 -2.176,-0.853 0,0"
       id="path33"
       style="fill:#ffffff" />
    <path
       d="m 354.865,98.558 c 2.253,-0.64 1.378,-0.391 0,0"
       id="path35"
       style="fill:#ffffff" />
    <path
       d="m 343.418,103.279 c 1.34,-1.978 0.331,-4.405 4.148,-2.718 -1.382,0.906 -2.765,1.812 -4.148,2.718"
       id="path37"
       style="fill:#ffffff" />
    <path
       d="m 352.289,100.561 c -1.192,1.285 0.593,3.65 -2.862,2.575 0.082,-2.674 2.035,-1.684 2.862,-2.575"
       id="path39"
       style="fill:#ffffff" />
    <path
       d="m 356.152,100.561 c -2.111,1.009 -2.529,1.208 0,0"
       id="path41"
       style="fill:#ffffff" />
    <path
       d="m 359.586,103.279 c -0.652,-1.044 -2.615,0.335 -1.718,-2.718 3.488,-0.559 0.705,1.094 1.718,2.718"
       id="path43"
       style="fill:#ffffff" />
    <path
       d="m 363.735,103.709 c -0.745,-1.354 -2.938,0.108 -2.003,-3.148 3.321,-0.518 0.993,1.313 2.003,3.148"
       id="path45"
       style="fill:#ffffff" />
    <path
       d="m 367.312,103.279 c -0.876,-0.209 -2.017,1.984 -1.717,-1 0.358,-3.565 0.892,0.803 1.717,1"
       id="path47"
       style="fill:#ffffff" />
    <path
       d="m 341.415,102.851 c -3.195,-1.161 -0.312,-0.113 0,0"
       id="path49"
       style="fill:#ffffff" />
    <path
       d="m 336.979,106.571 c 0.144,-0.741 0.362,-1.874 0,0"
       id="path51"
       style="fill:#ffffff" />
    <path
       d="m 347.567,104.998 c -2.353,0.98 -3.721,4.171 -4.148,0 1.382,0 2.765,0 4.148,0"
       id="path53"
       style="fill:#ffffff" />
    <path
       d="m 349.713,107.428 c 0.583,-0.502 1.082,-1.886 2.29,-2.431 1.497,3.655 -0.894,1.231 -2.29,2.431"
       id="path55"
       style="fill:#ffffff" />
    <path
       d="m 356.581,105.998 c -3.121,-0.461 -2.338,-0.346 0,0"
       id="path57"
       style="fill:#ffffff" />
    <path
       d="m 360.015,106.428 c 0.429,0.183 -2.477,2.865 -1.932,-0.216 0.54,-3.047 1.134,-0.124 1.932,0.216"
       id="path59"
       style="fill:#ffffff" />
    <path
       d="m 363.735,107.715 c -1.273,-1.066 -2.595,0.803 -2.003,-2.29 3.206,-0.716 0.822,1.302 2.003,2.29"
       id="path61"
       style="fill:#ffffff" />
    <path
       d="m 368.6,107.428 c -2.023,-0.49 -3.563,1.895 -3.148,-2.003 3.164,-0.909 2.056,1.739 3.148,2.003"
       id="path63"
       style="fill:#ffffff" />
    <path
       d="m 339.984,107.143 c 2.434,-0.619 1.565,-0.398 0,0"
       id="path65"
       style="fill:#ffffff" />
    <path
       d="m 341.415,109.146 c -2.315,0.812 -3.06,1.073 0,0"
       id="path67"
       style="fill:#ffffff" />
    <path
       d="m 347.996,110.433 c -0.95,-0.03 -2.791,1.513 -4.577,1.146 1.625,-3.776 3.063,-1.195 4.577,-1.146"
       id="path69"
       style="fill:#ffffff" />
    <path
       d="m 356.152,111.864 c -0.776,-1.126 -2.973,0.759 -2.003,-2.718 3.224,-0.614 0.944,1.182 2.003,2.718"
       id="path71"
       style="fill:#ffffff" />
    <path
       d="m 360.015,111.864 c -0.896,-1.195 -3.13,0.892 -2.146,-2.718 3.391,-0.694 1.013,1.207 2.146,2.718"
       id="path73"
       style="fill:#ffffff" />
    <path
       d="m 364.021,110.863 c -0.401,-0.262 -2.271,2.819 -2.289,-1.717 2.299,-0.454 1.35,1.104 2.289,1.717"
       id="path75"
       style="fill:#ffffff" />
    <path
       d="m 369.173,110.433 c -0.04,0.004 -1.134,2.075 -3.722,1.431 0.939,-4.622 2.196,-1.296 3.722,-1.431"
       id="path77"
       style="fill:#ffffff" />
    <path
       d="m 349.713,111.864 c 3.783,-1.24 3.319,-1.088 0,0"
       id="path79"
       style="fill:#ffffff" />
    <path
       d="m 341.701,113.583 c -1.238,0.201 -2.29,3.984 -2.29,0.929 0,-2.38 1.007,-0.72 2.29,-0.929"
       id="path81"
       style="fill:#ffffff" />
    <path
       d="m 347.567,115.156 c -0.685,-0.084 -2.789,1.142 -4.148,0.857 3.245,-3.107 3.941,-0.883 4.148,-0.857"
       id="path83"
       style="fill:#ffffff" />
    <path
       d="m 352.289,115.013 c 1.572,0.946 -1.943,0.452 -1.574,0.857 0.003,0.08 1.232,-1.498 1.289,-1.573 -1.394,-1.055 -1.852,-0.325 -2.72,-1.003 3.001,-0.603 2.312,1.284 3.005,1.719"
       id="path85"
       style="fill:#ffffff" />
    <path
       d="m 356.581,116.013 c -1.111,-1.266 -3.539,1.085 -2.146,-2.719 3.281,-0.309 0.98,1.39 2.146,2.719"
       id="path87"
       style="fill:#ffffff" />
    <path
       d="m 360.015,116.013 c -0.991,-1.153 -3.033,0.971 -2.146,-2.431 3.284,-0.739 1.028,1.13 2.146,2.431"
       id="path89"
       style="fill:#ffffff" />
    <path
       d="m 364.021,115.156 c -0.381,-0.219 -2.156,3.122 -2.289,-1.573 2.315,-0.238 1.776,1.279 2.289,1.573"
       id="path91"
       style="fill:#ffffff" />
    <path
       d="m 369.173,116.729 c -1.24,0 -2.481,0 -3.722,0 0.698,-5.585 1.758,-1.179 3.722,0"
       id="path93"
       style="fill:#ffffff" />
    <path
       d="m 336.264,115.728 c 1.901,-2.16 0.879,-0.999 0,0"
       id="path95"
       style="fill:#ffffff" />
    <path
       d="m 313.227,115.013 c -2.159,1.37 -1.262,0.801 0,0"
       id="path97" />
    <path
       d="m 341.701,117.731 c -0.654,0.5 -1.041,1.917 -2.29,2.433 -0.525,-2.747 1.108,-1.53 2.29,-2.433"
       id="path99"
       style="fill:#ffffff" />
    <path
       d="m 347.996,119.733 c -1.271,-0.112 -2.961,1.263 -4.577,1.146 2.951,-4.239 3.629,-1.229 4.577,-1.146"
       id="path101"
       style="fill:#ffffff" />
    <path
       d="m 352.289,121.164 c -1.899,-1.676 -4.09,1.555 -3.005,-3.433 1.145,0 2.29,0 3.435,0 -0.003,0.06 -0.177,3.657 -0.43,3.433"
       id="path103"
       style="fill:#ffffff" />
    <path
       d="m 356.152,117.731 c -0.444,2.08 2.197,3.446 -2.003,3.433 -1.003,-3.414 1.891,-2.908 2.003,-3.433"
       id="path105"
       style="fill:#ffffff" />
    <path
       d="m 360.015,120.878 c -0.852,-1.007 -3.809,0.173 -1.002,-3.292 1.96,0.953 0.267,2.423 1.002,3.292"
       id="path107"
       style="fill:#ffffff" />
    <path
       d="m 364.021,118.446 c -0.966,1.706 1.371,3.428 -2.289,2.718 -1.511,-5.918 1.548,-1.408 2.289,-2.718"
       id="path109"
       style="fill:#ffffff" />
    <path
       d="m 385.054,118.446 c 0.408,6.385 3.643,18.171 1.289,24.181 -3.492,8.919 -12.101,12.656 -15.454,4.149 -5.542,-14.06 -0.485,-29.901 14.165,-28.33"
       id="path111"
       style="fill:#ffffff" />
    <path
       d="m 369.173,121.164 c -1.24,0 -2.481,0 -3.722,0 0.096,-0.906 0.191,-1.812 0.287,-2.718 4.581,-1.247 1.92,1.641 3.435,2.718"
       id="path113"
       style="fill:#ffffff" />
    <path
       d="m 337.264,120.449 c -2.623,-1.281 -0.828,-0.405 0,0"
       id="path115"
       style="fill:#ffffff" />
    <path
       d="m 341.701,122.595 c 0.198,-0.121 -0.869,1.684 -2.29,2.003 -0.653,-2.922 0.873,-1.135 2.29,-2.003"
       id="path117"
       style="fill:#ffffff" />
    <path
       d="m 347.996,123.883 c 0.318,-0.017 -3.091,1.356 -4.577,1.002 2.135,-2.11 3.568,-0.948 4.577,-1.002"
       id="path119"
       style="fill:#ffffff" />
    <path
       d="m 352.718,124.313 c -1.184,-0.383 -1.959,-0.884 -3.435,0 1.681,-3.954 2.168,-0.41 3.435,0"
       id="path121"
       style="fill:#ffffff" />
    <path
       d="m 356.581,124.741 c -1.286,-1.101 -3.241,1.353 -2.432,-2.146 3.461,-0.607 1.393,1.257 2.432,2.146"
       id="path123"
       style="fill:#ffffff" />
    <path
       d="m 360.588,124.741 c -1.536,-1.096 -3.485,1.439 -2.72,-2.146 3.325,-0.592 1.555,1.315 2.72,2.146"
       id="path125"
       style="fill:#ffffff" />
    <path
       d="m 363.735,122.595 c -0.438,1.944 1.814,3.425 -2.003,3.005 -0.54,-2.693 1.922,-2.643 2.003,-3.005"
       id="path127"
       style="fill:#ffffff" />
    <path
       d="m 312.225,156.507 c -4.879,-0.661 -13.906,-5.926 -18.743,3.004 -0.405,-0.253 -0.787,-0.539 -1.145,-0.858 3.614,-12.357 -14.036,-6.996 -17.885,-1.431 0.961,-9.457 15.736,-11.98 20.889,-2.719 5.646,-4.165 12.157,-2.317 14.882,1.716 1.963,-10.657 0.785,-22.367 1.286,-33.337 3.949,7.16 0.922,24.022 0.716,33.625"
       id="path129" />
    <path
       d="m 369.173,125.314 c -2.279,-0.703 -3.9,2.153 -3.722,-2.432 4.228,-1.215 2.751,2.132 3.722,2.432"
       id="path131"
       style="fill:#ffffff" />
    <path
       d="m 337.695,124.313 c -2.285,0.204 -1.045,0.094 0,0"
       id="path133"
       style="fill:#ffffff" />
    <path
       d="m 335.978,126.459 c -2.479,-0.108 -0.623,-0.027 0,0"
       id="path135"
       style="fill:#ffffff" />
    <path
       d="m 342.129,128.606 c -3.261,-3.369 -1.574,-1.627 0,0"
       id="path137"
       style="fill:#ffffff" />
    <path
       d="m 343.847,127.747 c 1.118,-1.329 1.822,-2.164 0,0"
       id="path139"
       style="fill:#ffffff" />
    <path
       d="m 352.289,126.459 c -1.309,0.504 -1.652,1.373 -3.005,1.573 0.555,-2.068 1.602,-1.032 3.005,-1.573"
       id="path141"
       style="fill:#ffffff" />
    <path
       d="m 356.581,129.034 c -1.224,-1.224 -3.305,1.141 -2.432,-2.432 3.572,-0.873 1.208,1.208 2.432,2.432"
       id="path143"
       style="fill:#ffffff" />
    <path
       d="m 360.301,129.034 c -1.214,-1.229 -3.308,1.147 -2.433,-2.432 1.998,0.395 1.666,1.654 2.433,2.432"
       id="path145"
       style="fill:#ffffff" />
    <path
       d="m 364.021,127.318 c -0.755,1.088 1.636,2.454 -2.002,1.716 -1.506,-3.933 1.048,-0.342 2.002,-1.716"
       id="path147"
       style="fill:#ffffff" />
    <path
       d="m 369.173,128.606 c -1.24,0.143 -2.481,0.285 -3.722,0.428 1.597,-3.479 2.541,-0.734 3.722,-0.428"
       id="path149"
       style="fill:#ffffff" />
    <path
       d="m 59.113,128.606 c 0.357,4.008 -0.484,8.422 -0.715,12.447 -5.676,-5.235 -20.07,-16.454 0.715,-12.447"
       id="path151"
       style="fill:#ffffff" />
    <path
       d="m 346.565,128.606 c 1.7,-0.252 1.765,-0.262 0,0"
       id="path153"
       style="fill:#ffffff" />
    <path
       d="m 337.695,130.464 c -1.104,0.652 -0.517,2.006 -3.148,1.288 0.039,-2.893 1.425,-0.269 3.148,-1.288"
       id="path155"
       style="fill:#ffffff" />
    <path
       d="m 343.847,131.467 c 1.042,-0.841 2.539,-2.049 0,0"
       id="path157"
       style="fill:#ffffff" />
    <path
       d="m 352.718,131.467 c -0.898,-0.058 -2.169,0.961 -3.435,0.716 -0.123,-0.374 -0.171,-0.756 -0.143,-1.146 1.947,-1.231 2.985,0.392 3.578,0.43"
       id="path159"
       style="fill:#ffffff" />
    <path
       d="m 357.154,131.467 c -0.483,-0.008 -0.528,1.463 -2.72,1.001 -0.065,-0.672 0.137,-0.809 -0.143,-1.573 1.158,-0.761 1.8,0.556 2.863,0.572"
       id="path161"
       style="fill:#ffffff" />
    <path
       d="m 369.173,130.752 c -0.105,0.017 -1.206,2.529 -4.008,1.716 0.289,-2.837 1.705,-1.354 4.008,-1.716"
       id="path163"
       style="fill:#ffffff" />
    <path
       d="m 360.588,132.039 c -1.563,-0.465 -2.7,2.306 -2.72,-1.286 2.007,-0.327 2.296,1.159 2.72,1.286"
       id="path165"
       style="fill:#ffffff" />
    <path
       d="m 364.308,132.468 c -1.389,-1.313 -3.241,2.06 -2.576,-1.716 2.393,-0.369 1.769,0.954 2.576,1.716"
       id="path167"
       style="fill:#ffffff" />
    <path
       d="m 342.129,132.039 c -2.882,-1.018 0.312,0.109 0,0"
       id="path169"
       style="fill:#ffffff" />
    <path
       d="m 347.996,132.039 c -3.126,-1.017 0.3,0.097 0,0"
       id="path171"
       style="fill:#ffffff" />
    <path
       d="m 391.922,144.917 c -5.571,-0.913 -5.817,-6.021 -3.863,-12.019 4.479,3.215 4.126,6.703 3.863,12.019"
       id="path173"
       style="fill:#ffffff" />
    <path
       d="m 347.996,133.899 c -1.401,0.644 -2.615,1.86 -4.148,2.433 0,-0.811 0,-1.622 0,-2.433 1.382,0 2.765,0 4.148,0"
       id="path175"
       style="fill:#ffffff" />
    <path
       d="m 352.289,133.899 c -1.117,1.702 3.165,4.142 -3.005,3.004 0.39,-2.353 2.126,-1.666 3.005,-3.004"
       id="path177"
       style="fill:#ffffff" />
    <path
       d="m 356.581,133.899 c -0.709,1.202 0.413,2.118 -0.429,3.435 -3.992,-2.727 -0.461,-1.927 0.429,-3.435"
       id="path179"
       style="fill:#ffffff" />
    <path
       d="m 337.695,134.185 c -1.016,0.696 -1.504,1.959 -3.148,2.146 0.764,-1.703 1.898,-1.289 3.148,-2.146"
       id="path181"
       style="fill:#ffffff" />
    <path
       d="m 360.588,135.187 c 0.561,0.041 1.498,0.041 3.861,-0.573 0,0.906 0,1.813 0,2.72 -2.193,-0.144 -4.388,-0.287 -6.581,-0.431 0.711,-5.14 1.54,-1.473 2.72,-1.716"
       id="path183"
       style="fill:#ffffff" />
    <path
       d="m 369.173,137.333 c -1.336,-0.144 -2.672,-0.287 -4.008,-0.431 0,-0.763 0,-1.526 0,-2.289 4.871,-1.388 2.465,1.683 4.008,2.72"
       id="path185"
       style="fill:#ffffff" />
    <path
       d="m 342.129,134.756 c -1.139,1.281 0.415,3.036 -2.719,2.146 0.657,-1.299 1.849,-1.167 2.719,-2.146"
       id="path187"
       style="fill:#ffffff" />
    <path
       d="m 242.115,142.484 c -1.333,1.411 -2.624,2.452 -4.722,3.004 0.88,-1.041 2.112,-1.77 3.006,-2.718 -4.564,-8.999 -14.972,0.235 -21.893,-2.433 6.927,-0.717 19.327,-8.408 23.609,2.147"
       id="path189" />
    <path
       d="m 337.695,139.764 c -1.366,-0.286 -2.201,0.787 -3.292,-0.284 1.912,-1.809 2.401,0.098 3.292,0.284"
       id="path191"
       style="fill:#ffffff" />
    <path
       d="m 347.996,138.622 c -1.852,1.134 -2.157,3.651 -4.148,0 1.382,0 2.765,0 4.148,0"
       id="path193"
       style="fill:#ffffff" />
    <path
       d="m 356.581,140.337 c -1.345,-0.783 -2.766,1.55 -2.432,-1.716 2.938,-0.856 1.394,1.113 2.432,1.716"
       id="path195"
       style="fill:#ffffff" />
    <path
       d="m 352.718,140.337 c -4.249,-1.316 -0.24,-0.074 0,0"
       id="path197"
       style="fill:#ffffff" />
    <path
       d="m 216.36,141.053 c -1.02,0.945 -0.582,2.318 -2.431,2.719 -0.057,-0.151 -0.286,-0.366 -0.431,-0.431 0.048,-0.143 0,-0.19 -0.143,-0.143 0.688,-1.914 2.373,-1.559 3.005,-2.145"
       id="path199" />
    <path
       d="m 233.245,141.339 c -2.244,0.318 -2.34,0.331 0,0"
       id="path201" />
    <path
       d="m 193.897,143.199 c -2.279,-0.179 -2.06,-0.162 0,0"
       id="path203" />
    <path
       d="m 340.699,142.055 c -0.952,1.993 -0.434,0.907 0,0"
       id="path205"
       style="fill:#ffffff" />
    <path
       d="m 347.996,143.486 c -4.378,-1.727 -0.642,-0.253 0,0"
       id="path207"
       style="fill:#ffffff" />
    <path
       d="m 352.718,143.486 c -1.98,-0.742 -3.421,1.49 -3.435,-1.431 2.72,-0.787 2.787,1.188 3.435,1.431"
       id="path209"
       style="fill:#ffffff" />
    <path
       d="m 336.264,143.199 c 2.435,-0.619 1.566,-0.399 0,0"
       id="path211"
       style="fill:#ffffff" />
    <path
       d="m 190.605,143.629 c -2.715,-0.128 -2.347,-0.11 0,0"
       id="path213" />
    <path
       d="m 199.906,144.917 c 3.798,2.15 4.701,4.977 9.587,3.006 -0.114,3.151 -0.582,4.044 -2.289,6.15 -4.61,-4.577 0.515,-3.153 -4.722,-1.287 -0.933,-3.809 -4.683,-8.383 -7.011,-10.016 1.375,0.643 3.109,1.473 4.435,2.147"
       id="path215" />
    <path
       d="m 247.838,144.201 c -1.626,0.132 -1.674,1.911 -3.577,0.287 1.996,-1.609 3.108,-0.249 3.577,-0.287"
       id="path217" />
    <path
       d="m 186.886,144.201 c -1.683,1.342 -1.726,1.377 0,0"
       id="path219" />
    <path
       d="m 211.638,146.633 c -0.888,-1.819 -1.45,-2.97 0,0"
       id="path221" />
    <path
       d="m 47.094,146.633 c -1.625,-2.086 -1.317,-1.69 0,0"
       id="path223" />
    <path
       d="m 235.962,146.918 c -1.215,-1.564 -1.764,-2.271 0,0"
       id="path225" />
    <path
       d="m 28.78,145.345 c -0.768,0.705 0.167,2.407 -2.003,1.573 10e-4,-0.169 -0.126,-0.179 -0.287,-0.285 0.681,-1.378 2.067,-1.083 2.29,-1.288"
       id="path227" />
    <path
       d="m 266.439,145.203 c -1.107,0.563 -1.048,2.438 -3.291,1.573 0.042,-0.108 -0.092,-0.521 -0.143,-0.572 1.041,-0.805 2.899,-0.729 3.434,-1.001"
       id="path229" />
    <path
       d="m 337.98,145.203 c -1.237,0.301 -1.959,1.002 -3.434,0.716 0.773,-1.425 1.715,-0.298 3.434,-0.716"
       id="path231"
       style="fill:#ffffff" />
    <path
       d="m 347.996,146.633 c -2.32,-0.692 -3.827,1.505 -4.148,-1.431 2.698,-0.754 3.657,1.285 4.148,1.431"
       id="path233"
       style="fill:#ffffff" />
    <path
       d="m 350,145.776 c 0.248,-0.278 1.352,-1.518 0,0"
       id="path235"
       style="fill:#ffffff" />
    <path
       d="m 356.867,145.345 c -0.293,0.065 -0.513,1.935 -2.718,1.288 0.569,-1.704 1.536,-1.025 2.718,-1.288"
       id="path237"
       style="fill:#ffffff" />
    <path
       d="m 42.658,146.204 c -2.2,1.479 -1.303,0.876 0,0"
       id="path239" />
    <path
       d="m 50.528,148.207 c -0.281,-0.887 -2.335,-0.474 -0.572,-2.288 2.19,0.807 0.35,1.585 0.572,2.288"
       id="path241" />
    <path
       d="m 233.245,146.204 c -1.078,2.124 -1.203,2.369 0,0"
       id="path243" />
    <path
       d="m 260.43,146.633 c -1.114,0.786 -1.013,2.105 -2.861,2.289 -0.01,-0.121 -0.133,-0.241 -0.286,-0.285 0.626,-2.293 2,-1.194 3.147,-2.004"
       id="path245" />
    <path
       d="m 22.77,148.637 c -1.491,-1.399 -2.457,-2.306 0,0"
       id="path247" />
    <path
       d="m 34.073,148.637 c -0.826,-0.833 -2.624,0.691 -1.431,-1.861 2.178,-0.969 0.547,0.97 1.431,1.861"
       id="path249" />
    <path
       d="m 253.132,148.637 c -0.574,-0.359 -1.584,1.594 -2.002,-1.431 2.033,-1.421 0.836,0.701 2.002,1.431"
       id="path251" />
    <path
       d="m 236.822,147.778 c -0.462,1.324 1.248,2.424 -1.574,2.862 0.063,-1.44 1.267,-1.982 1.574,-2.862"
       id="path253" />
    <path
       d="m 345.564,148.207 c -1.461,0.694 -2.711,1.288 0,0"
       id="path255"
       style="fill:#ffffff" />
    <path
       d="m 355.865,148.207 c -3.466,0.898 -5.746,2.938 -10.016,2.146 4.017,-1.002 5.076,-1.376 10.016,-2.146"
       id="path257"
       style="fill:#ffffff" />
    <path
       d="m 38.509,149.353 c -1.797,1.791 -1.69,2.541 -4.006,3.72 -10e-4,0.056 -0.858,-1.063 -0.715,-1.002 1.33,-1.465 4.283,-2.391 4.721,-2.718"
       id="path259" />
    <path
       d="m 18.907,149.638 c -0.647,1.196 0.778,2.783 -1.145,2.146 -0.978,-1.785 0.725,-1.368 1.145,-2.146"
       id="path261" />
    <path
       d="m 52.96,150.64 c -2.267,0.629 -1.736,0.483 0,0"
       id="path263" />
    <path
       d="m 230.668,150.353 c -0.968,2.615 -0.44,1.189 0,0"
       id="path265" />
    <path
       d="m 253.561,152.786 c -1.111,0.281 -2.414,1.816 -3.433,2.433 0.92,-4.044 2.981,-2.319 3.433,-2.433"
       id="path267" />
    <path
       d="m 235.248,152.071 c -1.135,0.714 -1.994,3.108 -4.722,2.575 0.061,-0.064 -0.131,-0.565 -0.143,-0.573 1.469,-0.419 3.411,-1.087 4.865,-2.002"
       id="path269" />
    <path
       d="m 349.284,152.071 c -1.911,0.413 -2.606,1.817 -4.149,0 1.382,0 2.766,0 4.149,0"
       id="path271"
       style="fill:#ffffff" />
    <path
       d="m 16.903,153.501 c -2.279,0.902 -1.35,0.535 0,0"
       id="path273" />
    <path
       d="m 90.019,155.792 c -0.709,-0.86 -2.514,-3.046 0,0"
       id="path275" />
    <path
       d="m 398.647,155.218 c -2.946,-0.687 -0.211,-0.049 0,0"
       id="path277"
       style="fill:#ffffff" />
    <path
       d="m 4.599,153.788 c -0.961,1.083 -0.274,2.287 -2.146,2.72 -0.537,-2.563 1.18,-1.632 2.146,-2.72"
       id="path279" />
    <path
       d="m 1.165,156.934 c -1.44,1.736 -1.663,2.005 0,0"
       id="path281" />
  </g>
</svg>
